<?xml version="1.0" encoding="UTF-8"?>
<svg width="16px" height="16px" viewBox="0 0 16 16" version="1.1" xmlns="http://www.w3.org/2000/svg" xmlns:xlink="http://www.w3.org/1999/xlink">
    <!-- Generator: Sketch 59.1 (86144) - https://sketch.com -->
    <title>Group 22</title>
    <desc>Created with Sketch.</desc>
    <g id="Page-1" stroke="none" stroke-width="1" fill="none" fill-rule="evenodd">
        <g id="Desktop-HD-Copy-2" transform="translate(-1373.000000, -719.000000)" fill="#6672FB">
            <g id="Group-64" transform="translate(1132.000000, 650.000000)">
                <g id="Path-2-+-Path-2-+-Path-2-+-Path-2-+-Path-2-+-Path-3-+-Path-3-Mask" transform="translate(0.000000, 46.000000)">
                    <g id="Aug">
                        <g id="Group-52" transform="translate(25.000000, 15.000000)">
                            <g id="Group-8-Copy" transform="translate(205.000000, 0.000000)">
                                <g id="Group-22" transform="translate(12.000000, 9.000000)">
                                    <path d="M3.71155631,0.000259369899 C3.54946492,0.0180569806 3.42783802,0.156754324 3.43135968,0.319781842 L3.43135968,1.23902341 L1.76001137,1.23902341 C0.795557662,1.23902341 0.000179972431,2.03258589 0.000179972431,2.99885488 L0.000179972431,4.84717106 L0.000179972431,4.8864969 C-5.99908109e-05,4.89468404 -5.99908109e-05,4.90288055 0.000179972431,4.91106768 L0.000179972431,12.0880371 C0.000179972431,13.0543045 0.795139235,13.8478686 1.76001137,13.8478686 L12.0879607,13.8478686 C13.0528312,13.8478686 13.8428764,13.0543045 13.8428764,12.0880371 L13.8428764,4.93073061 C13.8430813,4.9241779 13.8430813,4.91762039 13.8428764,4.91106768 C13.8435038,4.89960885 13.8435038,4.88812427 13.8428764,4.87666544 L13.8428764,2.99885488 C13.8428764,2.03258589 13.0524128,1.23902341 12.0879607,1.23902341 L10.3625393,1.23902341 L10.3625393,0.319781842 C10.3638802,0.234635215 10.3306471,0.152581989 10.2704319,0.0923667658 C10.2102167,0.0321515428 10.1281635,-0.00108156172 10.0430168,0.000259369899 C9.95957472,0.00155316499 9.88006532,0.0359463565 9.82198485,0.0958706423 C9.76390439,0.155794928 9.73201205,0.236340041 9.73332582,0.319781842 L9.73332582,1.23902341 L4.06057317,1.23902341 L4.06057317,0.319781842 C4.0619141,0.234635215 4.028681,0.152581989 3.96846577,0.0923667658 C3.90825055,0.0321515428 3.82619732,-0.00108156172 3.7410507,0.000259369899 C3.73122464,-8.64566329e-05 3.72138237,-8.64566329e-05 3.71155631,0.000259369899 L3.71155631,0.000259369899 Z M1.76001137,1.8682369 L3.43135968,1.8682369 L3.43135968,2.78747847 C3.43111307,2.90004082 3.49102279,3.00415839 3.58846374,3.06051087 C3.6859047,3.11686336 3.80602815,3.11686336 3.90346911,3.06051087 C4.00091007,3.00415839 4.06081978,2.90004082 4.06057317,2.78747847 L4.06057317,1.8682369 L9.73332582,1.8682369 L9.73332582,2.78747847 C9.73307921,2.90004082 9.79298892,3.00415839 9.89042988,3.06051087 C9.98787084,3.11686336 10.1079943,3.11686336 10.2054352,3.06051087 C10.3028762,3.00415839 10.3627859,2.90004082 10.3625393,2.78747847 L10.3625393,1.8682369 L12.0879607,1.8682369 C12.7086263,1.8682369 13.2136629,2.37507308 13.2136629,2.99885488 L13.2136629,4.59646094 L0.629393456,4.59646094 L0.629393456,2.99885488 C0.629393456,2.37507308 1.13934418,1.8682369 1.76001137,1.8682369 Z M0.629393456,5.22567443 L13.2136629,5.22567443 L13.2136629,12.0880371 C13.2136629,12.7118236 12.7082078,13.2186551 12.0879607,13.2186551 L1.76001137,13.2186551 C1.13976261,13.2186551 0.629393456,12.7118236 0.629393456,12.0880371 L0.629393456,5.22567443 Z" id="Shape" stroke="#6672FB" stroke-width="0.5"></path>
                                    <circle id="Oval" cx="4.27777778" cy="8.94444444" r="1.16666667"></circle>
                                    <circle id="Oval-Copy" cx="9.72222222" cy="8.94444444" r="1.16666667"></circle>
                                </g>
                            </g>
                        </g>
                    </g>
                </g>
            </g>
        </g>
    </g>
</svg>