<?xml version="1.0" encoding="UTF-8"?>
<svg width="19px" height="16px" viewBox="0 0 19 16" version="1.1" xmlns="http://www.w3.org/2000/svg" xmlns:xlink="http://www.w3.org/1999/xlink">
    <!-- Generator: Sketch 59.1 (86144) - https://sketch.com -->
    <title>Combined Shape</title>
    <desc>Created with Sketch.</desc>
    <g id="Page-1" stroke="none" stroke-width="1" fill="none" fill-rule="evenodd">
        <g id="Desktop-HD-Copy-2" transform="translate(-882.000000, -121.000000)" fill="#61657E">
            <g id="Group-27-Copy-2" transform="translate(286.000000, 109.000000)">
                <path d="M614.111111,26.2222222 C614.602031,26.2222222 615,26.6201913 615,27.1111111 C615,27.6020309 614.602031,28 614.111111,28 L601.482295,28 C600.991376,28 600.593407,27.6020309 600.593407,27.1111111 C600.593407,26.6201913 600.991376,26.2222222 601.482295,26.2222222 L614.111111,26.2222222 Z M597.867155,26.2222222 C598.358075,26.2222222 598.756044,26.6201913 598.756044,27.1111111 C598.756044,27.6020309 598.358075,28 597.867155,28 L596.888889,28 C596.397969,28 596,27.6020309 596,27.1111111 C596,26.6201913 596.397969,26.2222222 596.888889,26.2222222 L597.867155,26.2222222 Z M614.111111,19.1111111 C614.602031,19.1111111 615,19.5090802 615,20 C615,20.4909198 614.602031,20.8888889 614.111111,20.8888889 L601.482295,20.8888889 C600.991376,20.8888889 600.593407,20.4909198 600.593407,20 C600.593407,19.5090802 600.991376,19.1111111 601.482295,19.1111111 L614.111111,19.1111111 Z M597.867155,19.1111111 C598.358075,19.1111111 598.756044,19.5090802 598.756044,20 C598.756044,20.4909198 598.358075,20.8888889 597.867155,20.8888889 L596.888889,20.8888889 C596.397969,20.8888889 596,20.4909198 596,20 C596,19.5090802 596.397969,19.1111111 596.888889,19.1111111 L597.867155,19.1111111 Z M614.111111,12 C614.602031,12 615,12.3979691 615,12.8888889 C615,13.3798087 614.602031,13.7777778 614.111111,13.7777778 L601.482295,13.7777778 C600.991376,13.7777778 600.593407,13.3798087 600.593407,12.8888889 C600.593407,12.3979691 600.991376,12 601.482295,12 L614.111111,12 Z M597.867155,12 C598.358075,12 598.756044,12.3979691 598.756044,12.8888889 C598.756044,13.3798087 598.358075,13.7777778 597.867155,13.7777778 L596.888889,13.7777778 C596.397969,13.7777778 596,13.3798087 596,12.8888889 C596,12.3979691 596.397969,12 596.888889,12 L597.867155,12 Z" id="Combined-Shape"></path>
            </g>
        </g>
    </g>
</svg>