<?xml version="1.0" encoding="UTF-8"?>
<svg width="16px" height="16px" viewBox="0 0 16 16" version="1.1" xmlns="http://www.w3.org/2000/svg" xmlns:xlink="http://www.w3.org/1999/xlink">
    <!-- Generator: Sketch 59.1 (86144) - https://sketch.com -->
    <title>Combined Shape</title>
    <desc>Created with Sketch.</desc>
    <g id="Page-1" stroke="none" stroke-width="1" fill="none" fill-rule="evenodd">
        <g id="Desktop-HD-Copy-2" transform="translate(-846.000000, -121.000000)" fill="#61657E">
            <g id="Group-27-Copy-2" transform="translate(286.000000, 109.000000)">
                <path d="M564.705882,22.3529412 C565.22568,22.3529412 565.647059,22.7743202 565.647059,23.2941176 L565.647059,27.0588235 C565.647059,27.5786209 565.22568,28 564.705882,28 L560.941176,28 C560.421379,28 560,27.5786209 560,27.0588235 L560,23.2941176 C560,22.7743202 560.421379,22.3529412 560.941176,22.3529412 L564.705882,22.3529412 Z M575.058824,22.3529412 C575.578621,22.3529412 576,22.7743202 576,23.2941176 L576,27.0588235 C576,27.5786209 575.578621,28 575.058824,28 L571.294118,28 C570.77432,28 570.352941,27.5786209 570.352941,27.0588235 L570.352941,23.2941176 C570.352941,22.7743202 570.77432,22.3529412 571.294118,22.3529412 L575.058824,22.3529412 Z M564.705882,12 C565.22568,12 565.647059,12.4213791 565.647059,12.9411765 L565.647059,16.7058824 C565.647059,17.2256798 565.22568,17.6470588 564.705882,17.6470588 L560.941176,17.6470588 C560.421379,17.6470588 560,17.2256798 560,16.7058824 L560,12.9411765 C560,12.4213791 560.421379,12 560.941176,12 L564.705882,12 Z M575.058824,12 C575.578621,12 576,12.4213791 576,12.9411765 L576,16.7058824 C576,17.2256798 575.578621,17.6470588 575.058824,17.6470588 L571.294118,17.6470588 C570.77432,17.6470588 570.352941,17.2256798 570.352941,16.7058824 L570.352941,12.9411765 C570.352941,12.4213791 570.77432,12 571.294118,12 L575.058824,12 Z" id="Combined-Shape"></path>
            </g>
        </g>
    </g>
</svg>