<?xml version="1.0" encoding="UTF-8"?>
<svg width="18px" height="14px" viewBox="0 0 18 14" version="1.1" xmlns="http://www.w3.org/2000/svg" xmlns:xlink="http://www.w3.org/1999/xlink">
    <!-- Generator: Sketch 59.1 (86144) - https://sketch.com -->
    <title>Group</title>
    <desc>Created with Sketch.</desc>
    <g id="Page-1" stroke="none" stroke-width="1" fill="none" fill-rule="evenodd">
        <g id="Desktop-HD-Copy-2" transform="translate(-990.000000, -782.000000)">
            <g id="Group-13" transform="translate(286.000000, 705.000000)">
                <g id="Group-36" transform="translate(0.000000, 50.000000)">
                    <g id="Group-35" transform="translate(20.000000, 15.000000)">
                        <g id="Group-32" transform="translate(650.000000, 10.000000)">
                            <g id="Group" transform="translate(34.000000, 0.000000)">
                                <g id="Group-31">
                                    <rect id="Rectangle" x="0" y="0" width="18" height="18"></rect>
                                    <path d="M10.8641984,2.67705727 L16.7159166,8.16725338 C16.8063185,8.25068559 16.8587305,8.37535768 16.8587305,8.50696366 C16.8587305,8.63856963 16.8063185,8.76324172 16.7159166,8.84667393 L10.8641984,14.33687 C10.7480462,14.4459198 10.5863803,14.4695699 10.4493321,14.397561 C10.3122838,14.325552 10.2245448,14.1708575 10.2241764,14.0005846 L10.2241764,11.591772 C9.19011931,11.5803524 5.16852037,11.7105359 1.6155326,15.2084277 C1.48336256,15.3385779 1.29025273,15.3532875 1.14371621,15.2443669 C0.997179683,15.1354463 0.933324506,14.9297346 0.987701783,14.741761 C2.61717121,9.08947236 6.69824312,6.60404302 10.2241764,5.54568473 L10.2241764,3.02019452 C10.2233065,2.89354444 10.2710347,2.7726353 10.3551144,2.68849104 C10.4391941,2.60434679 10.5514416,2.56515755 10.6630553,2.58097883 C10.7368624,2.59078258 10.806647,2.62411605 10.8641984,2.67705727 Z M11.0044055,5.8750965 C11.0044815,6.07545524 10.8841253,6.25048202 10.7118196,6.3005867 C7.62332175,7.18086278 4.23296716,9.22764962 2.29212777,13.5682426 C6.30467048,10.5250708 10.2697613,10.6872732 10.6325874,10.7064669 C10.8408559,10.7174985 11.0046151,10.9109414 11.0044055,11.1456826 L11.0044055,13.0535257 L15.8564553,8.51038844 L11.0044055,3.95352786 L11.0044055,5.8750965 Z" id="Shape" stroke="#4D4D4D" stroke-width="0.3" fill="#4D4D4D" fill-rule="nonzero"></path>
                                </g>
                            </g>
                        </g>
                    </g>
                </g>
            </g>
        </g>
    </g>
</svg>