<?xml version="1.0" encoding="UTF-8"?>
<svg width="31px" height="28px" viewBox="0 0 31 28" version="1.1" xmlns="http://www.w3.org/2000/svg" xmlns:xlink="http://www.w3.org/1999/xlink">
    <!-- Generator: Sketch 59.1 (86144) - https://sketch.com -->
    <title>Group</title>
    <desc>Created with Sketch.</desc>
    <g id="Page-1" stroke="none" stroke-width="1" fill="none" fill-rule="evenodd">
        <g id="Desktop-HD-Copy-2" transform="translate(-44.000000, -55.000000)" fill-rule="nonzero">
            <g id="Group-7" transform="translate(43.000000, 46.000000)">
                <g id="noun_transfer_1920876" transform="translate(1.000000, 9.000000)">
                    <g id="Group">
                        <path d="M6.38765197,0.621021719 L0.295724628,10.5573692 C-0.118289851,11.2375359 0.354869554,12.0951373 1.15332605,12.0951373 L4.22886218,12.0951373 L4.22886218,16.0578473 C4.22886218,21.2330283 8.39857944,25.432318 13.5737604,25.432318 L13.5737604,25.432318 C14.2243546,25.432318 14.5792242,24.6338615 14.1356372,24.1607021 L13.0118836,22.9482311 C11.2375359,21.0260211 10.2320721,18.4827893 10.2320721,15.8508401 L10.2320721,12.0655648 L13.3076083,12.0655648 C14.0764923,12.0655648 14.5792242,11.2079634 14.1652097,10.5277968 L8.10285481,0.621021719 C7.71841279,-0.0295724628 6.77209398,-0.0295724628 6.38765197,0.621021719 Z" id="Path" fill="#FFC01C"></path>
                        <path d="M16.331527,3.07553613 L17.4552806,4.28800711 C19.2296283,6.21021719 20.2350921,8.75344899 20.2350921,11.3853982 L20.2350921,15.141101 L17.1299835,15.141101 C16.3610994,15.141101 15.8583676,15.9987024 16.2723821,16.678869 L22.3643094,26.6152165 C22.7487514,27.2658107 23.6950702,27.2658107 24.0795122,26.6152165 L30.1714396,16.6492966 C30.5854541,15.9691299 30.1122947,15.1115285 29.3138382,15.1115285 L26.238302,15.1115285 L26.238302,11.1488185 C26.238302,5.97363749 22.0685848,1.77434777 16.8934038,1.77434777 C16.2132371,1.77434777 15.8583676,2.57280426 16.331527,3.07553613 Z" id="Path" fill="#6672FB"></path>
                    </g>
                </g>
            </g>
        </g>
    </g>
</svg>