<?xml version="1.0" encoding="UTF-8"?>
<svg width="25px" height="22px" viewBox="0 0 25 22" version="1.1" xmlns="http://www.w3.org/2000/svg" xmlns:xlink="http://www.w3.org/1999/xlink">
    <!-- Generator: Sketch 59.1 (86144) - https://sketch.com -->
    <title>Group 30 Copy 7</title>
    <desc>Created with Sketch.</desc>
    <g id="Page-1" stroke="none" stroke-width="1" fill="none" fill-rule="evenodd">
        <g id="Desktop-HD-Copy-2" transform="translate(-43.000000, -321.000000)">
            <g id="Group-6" transform="translate(0.000000, 164.000000)">
                <g id="Group-4" transform="translate(30.000000, 142.000000)">
                    <g id="Group-30-Copy-7">
                        <rect id="Rectangle" x="0" y="0" width="51" height="51"></rect>
                        <path d="M37,34.0058569 L37,20.1797983 C37,19.0809278 36.1032964,18.1865849 35.0010592,18.1865849 L20.961105,18.1865849 C20.5803322,18.1865849 20.2293873,17.9792684 20.0457588,17.6464463 L19.7073977,17.0328638 C19.3564529,16.3960396 18.6848573,16 17.955936,16 L15.9989408,16 C14.8967036,16 14,16.8943429 14,17.9932134 L14,34.0058569 C14,35.105657 14.8967036,36 15.9989408,36 L35.0010592,36 C36.1032964,36 37,35.105657 37,34.0058569 Z M15.9989409,16.9519825 L17.9559361,16.9519825 C18.3367089,16.9519825 18.6876538,17.159299 18.8712822,17.492121 L19.2096434,18.1057036 C19.5605883,18.7425278 20.2321839,19.1385674 20.9611051,19.1385674 L35.0010593,19.1385674 C35.5771121,19.1385674 36.0455046,19.605262 36.0455046,20.1797983 L36.0455046,21.7211918 L14.9544955,21.7211918 L14.9544955,17.9932134 C14.9544955,17.4186771 15.4228879,16.9519825 15.9989409,16.9519825 Z M14.9544955,34.0058569 L14.9544955,22.6731743 L36.0455046,22.6731743 L36.0455046,34.0058569 C36.0455046,34.5803932 35.5771121,35.0480175 35.0010592,35.0480175 L15.9989409,35.0480175 C15.4228879,35.0480175 14.9544955,34.5803932 14.9544955,34.0058569 Z" id="Shape" stroke="#fff" stroke-width="0.6" fill="#fff" fill-rule="nonzero"></path>
                        <path d="M25.8607031,26.0055761 C26.78816,25.9315185 27.6146129,26.6030927 27.7567254,27.5462804 C27.8354018,28.0664013 27.6899123,28.5959297 27.3580464,28.9973257 L27.3580464,28.9973257 L27.9522679,30.7074167 C28.0981233,31.1102479 27.8985097,31.5581736 27.5061272,31.7085406 L27.5061272,31.7085406 L27.2809555,31.791322 C26.3734367,32.0948536 25.3886156,32.0672599 24.4951517,31.7085406 L24.4951517,31.7085406 C24.1018887,31.5581665 23.9025061,31.1116294 24.0471125,30.7093644 L24.0471125,30.7093644 L24.6394355,28.9973257 C24.3693483,28.6709012 24.2207029,28.256872 24.2198734,27.8286986 C24.2180286,26.8743105 24.9332462,26.0796337 25.8607031,26.0055761 Z M26.0006394,26.9662059 C25.6474173,26.9662059 25.332927,27.1956558 25.216979,27.5379591 C25.101031,27.8802623 25.2090533,28.2603499 25.4861537,28.4850775 L25.4861537,28.4850775 C25.6426798,28.614435 25.7036711,28.8326589 25.636133,29.0284891 L25.636133,29.0284891 L25.0020436,30.8593383 C25.6499383,31.0788184 26.3494421,31.0788184 26.9973369,30.8593383 L26.9973369,30.8593383 L26.3632474,29.0284891 C26.2957093,28.8326589 26.3567006,28.614435 26.5151252,28.4850775 C26.7922255,28.2603499 26.9002479,27.8802623 26.7842999,27.5379591 C26.6683519,27.1956558 26.3538616,26.9662059 26.0006394,26.9662059 Z" id="Combined-Shape" fill="#fff" fill-rule="nonzero"></path>
                    </g>
                </g>
            </g>
        </g>
    </g>
</svg>