<?xml version="1.0" encoding="UTF-8"?>
<svg width="22px" height="18px" viewBox="0 0 22 18" version="1.1" xmlns="http://www.w3.org/2000/svg" xmlns:xlink="http://www.w3.org/1999/xlink">
    <!-- Generator: Sketch 59.1 (86144) - https://sketch.com -->
    <title>Group 21</title>
    <desc>Created with Sketch.</desc>
    <g id="Page-1" stroke="none" stroke-width="1" fill="none" fill-rule="evenodd">
        <g id="Desktop-HD-Copy-2" transform="translate(-583.000000, -497.000000)" fill-rule="nonzero">
            <g id="Group-14" transform="translate(286.000000, 417.000000)">
                <g id="Group-26" transform="translate(0.000000, 50.000000)">
                    <g id="Group-25-Copy" transform="translate(268.000000, 0.000000)">
                        <g id="Group-24" transform="translate(22.000000, 21.000000)">
                            <g id="folder-icon">
                                <g id="Group-22">
                                    <g id="Group-21" transform="translate(7.000000, 9.000000)">
                                        <path d="M18.9384615,2.25 L13.7464615,2.25 C13.4558697,2.2487573 13.1773964,2.13158718 12.9710769,1.92375 L11.3981538,0.32625 C11.1918344,0.118412816 10.9133611,0.00124269924 10.6227692,0 L2.21538462,0 C0.991861477,0 0,1.00735931 0,2.25 L0,15.75 C0,16.9926407 0.991861477,18 2.21538462,18 L18.9384615,18 C20.1619847,18 21.1538462,16.9926407 21.1538462,15.75 L21.1538462,4.5 C21.1538462,3.25735931 20.1619847,2.25 18.9384615,2.25 Z" id="folder" fill="#FFFFFF"></path>
                                        <path d="M12.8190045,7.5 C13.538724,7.5 14.1221719,8.06825397 14.1221719,8.76923077 C14.1221719,9.47020757 13.538724,10.0384615 12.8190045,10.0384615 C12.099285,10.0384615 11.5158371,9.47020757 11.5158371,8.76923077 C11.5158371,8.06825397 12.099285,7.5 12.8190045,7.5 Z M8.58371041,9.40384615 C9.48335977,9.40384615 10.2126697,8.69352869 10.2126697,7.81730769 C10.2126697,6.94108669 9.48335977,6.23076923 8.58371041,6.23076923 C7.68406104,6.23076923 6.95475113,6.94108669 6.95475113,7.81730769 C6.95475113,8.69352869 7.68406104,9.40384615 8.58371041,9.40384615 Z M11.9546451,11.5509638 C11.6703587,11.0119867 11.0880932,10.6718961 10.4516296,10.6730769 L7.36737488,10.6730769 C6.7309113,10.6718961 6.14864581,11.0119867 5.86435942,11.5509638 L5.05977122,13.0793277 C4.97262469,13.243015 4.98124271,13.4377411 5.08254726,13.5939568 C5.1838518,13.7501725 5.36339532,13.8455991 5.55705143,13.8461538 L12.2619531,13.8461538 C12.4556092,13.8455991 12.6351527,13.7501725 12.7364573,13.5939568 C12.8377618,13.4377411 12.8463798,13.243015 12.7592333,13.0793277 L11.9546451,11.5509638 Z M16.015206,13.11 L15.4671209,12.1453847 C15.1729004,11.6315754 14.5747673,11.307517 13.920944,11.3076923 L12.8190045,11.3076923 L13.5863237,12.6581539 C13.7971208,13.0274249 13.8283564,13.4562206 13.6728634,13.8461538 L15.5017368,13.8461538 C15.7016974,13.8456213 15.887086,13.7540117 15.9916885,13.6040444 C16.096291,13.4540772 16.1051896,13.2671401 16.015206,13.11 Z" id="people" fill="#EC634D"></path>
                                    </g>
                                </g>
                            </g>
                        </g>
                    </g>
                </g>
            </g>
        </g>
    </g>
</svg>