<?xml version="1.0" encoding="UTF-8"?>
<svg width="22px" height="22px" viewBox="0 0 22 22" version="1.1" xmlns="http://www.w3.org/2000/svg" xmlns:xlink="http://www.w3.org/1999/xlink">
    <!-- Generator: Sketch 59.1 (86144) - https://sketch.com -->
    <title>Group 30 Copy 5</title>
    <desc>Created with Sketch.</desc>
    <g id="Page-1" stroke="none" stroke-width="1" fill="none" fill-rule="evenodd">
        <g id="Desktop-HD-Copy-2" transform="translate(-44.000000, -676.000000)">
            <g id="Group-6" transform="translate(0.000000, 164.000000)">
                <g id="Group-5" transform="translate(30.000000, 497.000000)">
                    <g id="Group-30-Copy-5">
                        <rect id="Rectangle" x="0" y="0" width="51" height="51"></rect>
                        <g id="mail" transform="translate(15.000000, 16.000000)" fill="#fff" fill-rule="nonzero" stroke="#fff" stroke-width="0.3">
                            <g id="logout">
                                <path d="M20.0204082,10.4408163 C20.0244898,10.4367347 20.0244898,10.4367347 20.0285714,10.4326531 C20.0408163,10.4163265 20.0530612,10.4040816 20.0612245,10.3877551 C20.0653061,10.3836735 20.0653061,10.3795918 20.0693878,10.3755102 C20.077551,10.3591837 20.0897959,10.3428571 20.0979592,10.3265306 C20.0979592,10.322449 20.1020408,10.3183673 20.1020408,10.3183673 C20.1102041,10.3020408 20.1183673,10.2857143 20.1265306,10.2653061 C20.1265306,10.2612245 20.1265306,10.2612245 20.1306122,10.2571429 C20.1387755,10.2408163 20.1428571,10.2204082 20.1510204,10.2 C20.1510204,10.1959184 20.1510204,10.1918367 20.155102,10.1918367 C20.1591837,10.1714286 20.1673469,10.155102 20.1673469,10.1346939 C20.1673469,10.1265306 20.1673469,10.122449 20.1714286,10.1142857 C20.1755102,10.0979592 20.1755102,10.0816327 20.1795918,10.0653061 C20.1836735,10.0408163 20.1836735,10.0204082 20.1836735,9.99591837 C20.1836735,9.97142857 20.1836735,9.95102041 20.1795918,9.92653061 C20.1795918,9.91020408 20.1755102,9.89387755 20.1714286,9.87755102 C20.1714286,9.86938776 20.1714286,9.86530612 20.1673469,9.85714286 C20.1632653,9.83673469 20.1591837,9.82040816 20.155102,9.8 C20.155102,9.79591837 20.155102,9.79183673 20.1510204,9.79183673 C20.1469388,9.77142857 20.1387755,9.75510204 20.1306122,9.73469388 C20.1306122,9.73061224 20.1306122,9.73061224 20.1265306,9.72653061 C20.1183673,9.71020408 20.1102041,9.68979592 20.1020408,9.67346939 C20.1020408,9.66938776 20.0979592,9.66530612 20.0979592,9.66530612 C20.0897959,9.64897959 20.0816327,9.63265306 20.0693878,9.61632653 C20.0653061,9.6122449 20.0653061,9.60816327 20.0612245,9.60408163 C20.0489796,9.5877551 20.0408163,9.57142857 20.0285714,9.55918367 C20.0244898,9.55510204 20.0244898,9.55510204 20.0204082,9.55102041 C20.0040816,9.53469388 19.9918367,9.51428571 19.9714286,9.49795918 L15.9346939,5.46530612 C15.6612245,5.19183673 15.2163265,5.19183673 14.9428571,5.46530612 C14.6693878,5.73877551 14.6693878,6.18367347 14.9428571,6.45714286 L17.7836735,9.29795918 L6.48979592,9.29795918 C6.10204082,9.29795918 5.7877551,9.6122449 5.7877551,9.99591837 C5.7877551,10.3836735 6.10204082,10.6979592 6.48979592,10.6979592 L17.7877551,10.6979592 L14.9673469,13.5183673 C14.6938776,13.7918367 14.6938776,14.2367347 14.9673469,14.5102041 C15.1020408,14.644898 15.2816327,14.7142857 15.4612245,14.7142857 C15.6408163,14.7142857 15.8204082,14.644898 15.955102,14.5102041 L19.9673469,10.4979592 C19.9877551,10.4734694 20.0040816,10.4571429 20.0204082,10.4408163 Z" id="Path"></path>
                                <path d="M3.8244898,1.4 L9.04897959,1.4 C9.43673469,1.4 9.75102041,1.08571429 9.75102041,0.702040816 C9.75102041,0.314285714 9.43673469,0 9.04897959,0 L3.8244898,0 C1.73061224,0 0.0244897959,1.70612245 0.0244897959,3.8 L0.0244897959,16.1959184 C0.0244897959,18.2897959 1.73061224,19.9959184 3.8244898,19.9959184 L8.96326531,19.9959184 C9.35102041,19.9959184 9.66530612,19.6816327 9.66530612,19.2979592 C9.66530612,18.9102041 9.35102041,18.5959184 8.96326531,18.5959184 L3.8244898,18.5959184 C2.50204082,18.5959184 1.4244898,17.5183673 1.4244898,16.1959184 L1.4244898,3.8 C1.42857143,2.47346939 2.50204082,1.4 3.8244898,1.4 Z" id="Path"></path>
                            </g>
                        </g>
                    </g>
                </g>
            </g>
        </g>
    </g>
</svg>