<?xml version="1.0" encoding="UTF-8"?>
<svg width="26px" height="20px" viewBox="0 0 26 20" version="1.1" xmlns="http://www.w3.org/2000/svg" xmlns:xlink="http://www.w3.org/1999/xlink">
    <!-- Generator: Sketch 59.1 (86144) - https://sketch.com -->
    <title>Group 30</title>
    <desc>Created with Sketch.</desc>
    <g id="Page-1" stroke="none" stroke-width="1" fill="none" fill-rule="evenodd">
        <g id="Desktop-HD-Copy-2" transform="translate(-43.000000, -180.000000)">
            <g id="Group-6" transform="translate(0.000000, 164.000000)">
                <g id="Group-72" transform="translate(30.000000, 0.000000)">
                    <g id="Group-30">
                        <rect id="Rectangle" x="0" y="0" width="51" height="51"></rect>
                        <path d="M19.4200568,22.2559242 C20.2225639,18.5592417 22.3256859,16 25.8923841,16 C29.994087,16 33.2932829,19.4123223 33.4716178,23.7725118 C36.5033113,23.9620853 39,26.6161137 39,29.9336493 C39,33.2511848 36.4141438,36 33.2041154,36 L25.5357143,36 L25.5357143,34.3886256 L33.2041154,34.3886256 C35.5224693,34.3886256 37.3949858,32.3981043 37.3949858,29.9336493 C37.3949858,27.2796209 35.2549669,25.1943128 32.7582781,25.478673 C32.3124409,25.478673 31.8666036,25.0995261 31.9557711,24.5308057 C32.134106,20.8341232 29.3699149,17.6113744 25.8923841,17.6113744 C22.8606906,17.6113744 21.2034059,20.0758294 20.7575686,23.2037915 C20.7575686,23.6777251 20.4008988,23.9620853 19.9550615,23.9620853 C17.1017029,23.6777251 14.5158467,26.0473934 14.5158467,29.1753555 C14.5158467,32.0189573 16.7450331,34.3886256 19.5092242,34.3886256 L25.5357143,34.3886256 L25.5357143,36 L19.5092242,36 C15.942526,36 13,32.9668246 13,29.1753555 C13,25.3838863 15.8533586,22.3507109 19.4200568,22.2559242 Z" id="Path" fill="#FFFFFF"></path>
                    </g>
                </g>
            </g>
        </g>
    </g>
</svg>