<?xml version="1.0" encoding="UTF-8"?>
<svg width="16px" height="16px" viewBox="0 0 16 16" version="1.1" xmlns="http://www.w3.org/2000/svg" xmlns:xlink="http://www.w3.org/1999/xlink">
    <!-- Generator: Sketch 59.1 (86144) - https://sketch.com -->
    <title>Combined Shape</title>
    <desc>Created with Sketch.</desc>
    <g id="Page-1" stroke="none" stroke-width="1" fill="none" fill-rule="evenodd">
        <g id="Desktop-HD-Copy-2" transform="translate(-957.000000, -781.000000)" fill="#4D4D4D" stroke="#4D4D4D" stroke-width="0.3">
            <g id="Group-13" transform="translate(286.000000, 705.000000)">
                <g id="Group-36" transform="translate(0.000000, 50.000000)">
                    <g id="Group-35" transform="translate(20.000000, 15.000000)">
                        <g id="Group-32" transform="translate(650.000000, 10.000000)">
                            <g id="Group-29">
                                <path d="M9.08333333,2 C9.35947571,2 9.58333333,2.22385763 9.58333333,2.5 L9.583,8.416 L15.5,8.41666667 C15.7761424,8.41666667 16,8.64052429 16,8.91666667 L16,9.08333333 C16,9.35947571 15.7761424,9.58333333 15.5,9.58333333 L9.583,9.583 L9.58333333,15.5 C9.58333333,15.7761424 9.35947571,16 9.08333333,16 L8.91666667,16 C8.64052429,16 8.41666667,15.7761424 8.41666667,15.5 L8.416,9.583 L2.5,9.58333333 C2.22385763,9.58333333 2,9.35947571 2,9.08333333 L2,8.91666667 C2,8.64052429 2.22385763,8.41666667 2.5,8.41666667 L8.416,8.416 L8.41666667,2.5 C8.41666667,2.22385763 8.64052429,2 8.91666667,2 L9.08333333,2 Z" id="Combined-Shape"></path>
                            </g>
                        </g>
                    </g>
                </g>
            </g>
        </g>
    </g>
</svg>