<?xml version="1.0" encoding="UTF-8"?>
<svg width="16px" height="16px" viewBox="0 0 16 16" version="1.1" xmlns="http://www.w3.org/2000/svg" xmlns:xlink="http://www.w3.org/1999/xlink">
    <!-- Generator: Sketch 59.1 (86144) - https://sketch.com -->
    <title>Shape</title>
    <desc>Created with Sketch.</desc>
    <g id="Page-1" stroke="none" stroke-width="1" fill="none" fill-rule="evenodd">
        <g id="Desktop-HD-Copy-2" transform="translate(-304.000000, -51.000000)" stroke="#6672FB" stroke-width="1.3">
            <g id="Group-4" transform="translate(286.000000, 34.000000)">
                <g id="Group-37" transform="translate(19.000000, 13.000000)">
                    <path d="M13.9234958,18.5525054 L9.84452999,14.4679606 C10.8849284,13.4632783 11.5294813,12.0782389 11.5294813,10.5507307 C11.5294813,7.48989918 8.94358337,5 5.76474066,5 C2.58589795,5 0,7.48989918 0,10.5507307 C0,13.6115621 2.58589795,16.1014613 5.76474066,16.1014613 C7.16008242,16.1014613 8.44067838,15.621191 9.43880205,14.8242646 L13.5276502,18.9188536 C13.5814545,18.9730393 13.6533765,19 13.725573,19 C13.7942009,19 13.8625542,18.9754182 13.9158095,18.9262546 C14.025065,18.8250198 14.0283592,18.6577049 13.9234958,18.5525054 Z M5.76474066,15.5728203 C2.8886841,15.5728203 0.54902292,13.3200166 0.54902292,10.5507307 C0.54902292,7.7814447 2.8886841,5.52864101 5.76474066,5.52864101 C8.64079723,5.52864101 10.9804584,7.7814447 10.9804584,10.5507307 C10.9804584,13.3200166 8.64052272,15.5728203 5.76474066,15.5728203 Z" id="Shape"></path>
                </g>
            </g>
        </g>
    </g>
</svg>