<?xml version="1.0" encoding="UTF-8"?>
<svg width="26px" height="26px" viewBox="0 0 26 26" version="1.1" xmlns="http://www.w3.org/2000/svg" xmlns:xlink="http://www.w3.org/1999/xlink">
    <!-- Generator: Sketch 59.1 (86144) - https://sketch.com -->
    <title>Group 2</title>
    <desc>Created with Sketch.</desc>
    <g id="Page-1" stroke="none" stroke-width="1" fill="none" fill-rule="evenodd">
        <g id="Desktop-HD-Copy-2" transform="translate(-1256.000000, -46.000000)" fill="#333539" fill-rule="nonzero" stroke="#333539" stroke-width="0.576">
            <g id="Group-42" transform="translate(1186.000000, 33.000000)">
                <g id="settings" transform="translate(58.000000, 0.000000)">
                    <g id="Group-2" transform="translate(13.000000, 14.000000)">
                        <path d="M22.752,9.312 L20.544,9.312 C20.16,9.312 19.872,9.12 19.776,8.736 C19.68,8.448 19.68,8.064 19.968,7.776 L21.6,6.144 C21.792,5.952 21.984,5.568 21.984,5.28 C21.984,4.992 21.888,4.608 21.6,4.416 L19.584,2.4 C19.104,1.92 18.336,1.92 17.856,2.4 L16.224,4.032 C15.936,4.32 15.648,4.32 15.264,4.224 C14.976,4.128 14.688,3.744 14.688,3.456 L14.688,1.248 C14.688,0.576 14.112,0 13.44,0 L10.56,0 C9.888,0 9.312,0.576 9.312,1.248 L9.312,3.456 C9.312,3.84 9.12,4.128 8.736,4.224 C8.448,4.32 8.064,4.32 7.776,4.032 L6.144,2.4 C5.664,1.92 4.896,1.92 4.416,2.4 L2.4,4.416 C2.208,4.608 2.016,4.992 2.016,5.28 C2.016,5.568 2.112,5.952 2.4,6.144 L4.032,7.776 C4.32,8.064 4.32,8.352 4.224,8.736 C4.128,9.024 3.744,9.312 3.456,9.312 L1.248,9.312 C0.576,9.312 0,9.888 0,10.56 L0,13.44 C0,14.112 0.576,14.688 1.248,14.688 L3.456,14.688 C3.84,14.688 4.128,14.88 4.224,15.264 C4.32,15.552 4.32,15.936 4.032,16.224 L2.4,17.856 C2.208,18.048 2.016,18.432 2.016,18.72 C2.016,19.008 2.112,19.392 2.4,19.584 L4.416,21.6 C4.896,22.08 5.664,22.08 6.144,21.6 L7.776,19.968 C8.064,19.68 8.352,19.68 8.736,19.776 C9.024,19.872 9.312,20.256 9.312,20.544 L9.312,22.752 C9.312,23.424 9.888,24 10.56,24 L13.44,24 C14.112,24 14.688,23.424 14.688,22.752 L14.688,20.544 C14.688,20.16 14.88,19.872 15.264,19.776 C15.552,19.68 15.936,19.68 16.224,19.968 L17.856,21.6 C18.336,22.08 19.104,22.08 19.584,21.6 L21.6,19.584 C21.792,19.392 21.984,19.008 21.984,18.72 C21.984,18.432 21.888,18.048 21.6,17.856 L19.968,16.224 C19.68,15.936 19.68,15.648 19.776,15.264 C19.872,14.976 20.256,14.688 20.544,14.688 L22.752,14.688 C23.424,14.688 24,14.112 24,13.44 L24,10.56 C24,9.888 23.424,9.312 22.752,9.312 Z M23.136,13.44 C23.136,13.632 22.944,13.824 22.752,13.824 L20.544,13.824 C19.776,13.824 19.2,14.208 18.912,14.88 C18.624,15.552 18.816,16.32 19.296,16.8 L20.928,18.432 C21.024,18.528 21.024,18.816 20.928,18.912 L18.912,20.928 C18.816,21.024 18.528,21.024 18.432,20.928 L16.8,19.296 C16.32,18.816 15.552,18.624 14.88,18.912 C14.208,19.2 13.824,19.776 13.824,20.544 L13.824,22.752 C13.824,22.944 13.632,23.136 13.44,23.136 L10.56,23.136 C10.368,23.136 10.176,22.944 10.176,22.752 L10.176,20.544 C10.176,19.776 9.792,19.2 9.12,18.912 C8.928,18.816 8.64,18.816 8.448,18.816 C7.968,18.816 7.584,19.008 7.2,19.296 L5.568,20.928 C5.472,21.024 5.184,21.024 5.088,20.928 L3.072,18.912 C2.976,18.816 2.976,18.528 3.072,18.432 L4.704,16.8 C5.184,16.32 5.376,15.552 5.088,14.88 C4.8,14.208 4.224,13.824 3.456,13.824 L1.248,13.824 C1.056,13.824 0.864,13.632 0.864,13.44 L0.864,10.56 C0.864,10.368 1.056,10.176 1.248,10.176 L3.456,10.176 C4.224,10.176 4.8,9.792 5.088,9.12 C5.376,8.448 5.184,7.68 4.704,7.2 L3.072,5.568 C2.976,5.472 2.976,5.184 3.072,5.088 L5.088,3.072 C5.184,2.976 5.472,2.976 5.568,3.072 L7.2,4.704 C7.68,5.184 8.448,5.376 9.12,5.088 C9.792,4.8 10.176,4.224 10.176,3.456 L10.176,1.248 C10.176,1.056 10.368,0.864 10.56,0.864 L13.44,0.864 C13.632,0.864 13.824,1.056 13.824,1.248 L13.824,3.456 C13.824,4.224 14.208,4.8 14.88,5.088 C15.552,5.376 16.32,5.184 16.8,4.704 L18.432,3.072 C18.528,2.976 18.816,2.976 18.912,3.072 L20.928,5.088 C21.024,5.184 21.024,5.472 20.928,5.568 L19.296,7.2 C18.816,7.68 18.624,8.448 18.912,9.12 C19.2,9.792 19.776,10.176 20.544,10.176 L22.752,10.176 C22.944,10.176 23.136,10.368 23.136,10.56 L23.136,13.44 L23.136,13.44 Z" id="Shape_1_"></path>
                        <path d="M12,7.968 C9.792,7.968 7.968,9.792 7.968,12 C7.968,14.208 9.792,16.032 12,16.032 C14.208,16.032 16.032,14.208 16.032,12 C16.032,9.792 14.208,7.968 12,7.968 Z M12,15.072 C10.272,15.072 8.928,13.632 8.928,12 C8.928,10.368 10.368,8.928 12,8.928 C13.632,8.928 15.072,10.368 15.072,12 C15.072,13.632 13.728,15.072 12,15.072 Z" id="Shape_2_"></path>
                    </g>
                </g>
            </g>
        </g>
    </g>
</svg>