<svg width="25px" height="22px" viewBox="0 0 25 22" version="1.1" xmlns="http://www.w3.org/2000/svg">
    <title>Group 30 Copy 8</title>
    <desc>Created with Sketch.</desc>
    <g id="Page-1" stroke="none" stroke-width="1" fill="none" fill-rule="evenodd">
        <g id="Desktop-HD-Copy-2" transform="translate(-43.000000, -250.000000)">
            <g id="Group-6" transform="translate(0.000000, 164.000000)">
                <g id="Group-3" transform="translate(30.000000, 71.000000)">
                    <g id="Group-30-Copy-8">
                        <rect id="Rectangle" x="0" y="0" width="51" height="51"></rect>
                        <path d="M23.7674419,16 C24.0883721,16 24.3023256,16.2168022 24.3023256,16.5420054 C24.3023256,16.8672087 24.0883721,17.0840108 23.7674419,17.0840108 L23.7674419,17.0840108 L16.7813953,17.1382114 C15.8186047,17.1382114 15.0697674,17.897019 15.0697674,18.8726287 L15.0697674,18.8726287 L15.0697674,33.1815718 C15.0697674,34.1571816 15.8186047,34.9159892 16.7813953,34.9159892 L16.7813953,34.9159892 L34.2186047,34.9159892 C35.1813953,34.9159892 35.9302326,34.1571816 35.9302326,33.1815718 L35.9302326,33.1815718 L35.9302326,27.3821138 C35.9302326,27.0569106 36.144186,26.8401084 36.4651163,26.8401084 C36.7860465,26.8401084 37,27.0569106 37,27.3821138 L37,27.3821138 L37,33.1815718 C37,34.7533875 35.7697674,36 34.2186047,36 L34.2186047,36 L16.7813953,36 C15.2302326,36 14,34.699187 14,33.1273713 L14,33.1273713 L14,18.8184282 C14,17.2466125 15.2302326,16 16.7813953,16 L16.7813953,16 Z M32.7596178,16.2239725 C32.9735713,16.0071703 33.2945015,16.0071703 33.508455,16.2239725 L33.508455,16.2239725 L36.7712457,19.5844061 C37.0386875,19.9096093 37.0386875,20.3974142 36.7712457,20.6684169 L36.7712457,20.6684169 L33.508455,24.0288505 C33.4014782,24.1372516 33.2945015,24.1914522 33.1340364,24.1914522 C32.9735713,24.1914522 32.8665945,24.1372516 32.7596178,24.0288505 C32.5456643,23.8120484 32.5456643,23.4868451 32.7596178,23.270043 L32.7596178,23.270043 L35.2735713,20.6684169 L26.5014782,20.6684169 C23.9340364,20.6684169 21.9014782,22.7822381 21.9014782,25.3296635 L21.9014782,25.3296635 L21.9014782,27.2808831 C21.9014782,27.6060863 21.6875248,27.8228885 21.3665945,27.8228885 C21.0456643,27.8228885 20.8317108,27.6060863 20.8317108,27.2808831 L20.8317108,27.2808831 L20.8317108,25.3296635 C20.8317108,22.1318316 23.3991527,19.5844061 26.5014782,19.5844061 L26.5014782,19.5844061 L35.2735713,19.5844061 L32.7596178,16.9827801 C32.5456643,16.7659779 32.5456643,16.4407747 32.7596178,16.2239725 Z" id="Combined-Shape" stroke="#fff" stroke-width="0.6" fill="#fff" fill-rule="nonzero"></path>
                    </g>
                </g>
            </g>
        </g>
    </g>
</svg>