<?xml version="1.0" encoding="UTF-8"?>
<svg width="23px" height="22px" viewBox="0 0 23 22" version="1.1" xmlns="http://www.w3.org/2000/svg" xmlns:xlink="http://www.w3.org/1999/xlink">
    <!-- Generator: Sketch 59.1 (86144) - https://sketch.com -->
    <title>Group 30 Copy 7</title>
    <desc>Created with Sketch.</desc>
    <g id="Page-1" stroke="none" stroke-width="1" fill="none" fill-rule="evenodd">
        <g id="Desktop-HD-Copy-2" transform="translate(-43.000000, -392.000000)">
            <g id="Group-6" transform="translate(0.000000, 164.000000)">
                <g id="Group-4-Copy-2" transform="translate(30.000000, 213.000000)">
                    <g id="Group-30-Copy-7">
                        <rect id="Rectangle" x="0" y="0" width="51" height="51"></rect>
                        <path d="M23.910214,31.8135034 L18.784149,34.8645713 L20.0971021,29.0467798 C20.1837318,28.6629171 20.026522,28.1839653 19.7324446,27.9259639 L15.2604629,23.9984327 L21.1889238,23.4493111 C21.5812525,23.4129718 21.9887855,23.1156499 22.1436094,22.7566089 L24.4953169,17.2800882 L26.8568749,22.7566089 C27.0127177,23.1180126 27.4217968,23.4132094 27.8115606,23.4493111 L33.7379707,24.0043836 L29.2680397,27.9259639 C28.9720271,28.185663 28.8173189,28.6654266 28.9033822,29.0467798 L30.2143324,34.852061 L25.0902704,31.8135034 C24.7514818,31.6126025 24.2467877,31.6139158 23.910214,31.8135034 Z M30.2661366,35.8875268 C30.790972,36.1987531 31.3194946,35.8234244 31.1837099,35.2217525 L29.7472815,28.8568329 C29.7306461,28.7831199 29.7814935,28.6254376 29.8389728,28.5750096 L34.7472287,24.2688761 C35.2057975,23.8665624 35.0116884,23.2485895 34.3967468,23.1916307 L27.8914504,22.58908 C27.8161116,22.5821018 27.6816609,22.4850805 27.6513996,22.4149036 L25.0673337,16.4223808 C24.8259094,15.862511 24.1774208,15.8559114 23.9331507,16.4223808 L21.3490848,22.4149036 C21.3191583,22.4843039 21.1852158,22.5820237 21.109034,22.58908 L14.6037375,23.1916307 C13.9959603,23.2479259 13.7892814,23.86182 14.2532557,24.2688761 L19.1615116,28.5750096 C19.2183548,28.6248796 19.2700245,28.7822951 19.2532028,28.8568329 L17.8167744,35.2217525 C17.6825717,35.8164146 18.2033257,36.2024217 18.7343478,35.8875268 L24.3518827,32.5563409 C24.4169402,32.5177619 24.5828163,32.5173302 24.6486017,32.5563409 L30.2661366,35.8875268 Z" id="Shape" stroke="#fff" stroke-width="0.7" fill="#fff" fill-rule="nonzero"></path>
                    </g>
                </g>
            </g>
        </g>
    </g>
</svg>