<?xml version="1.0" encoding="UTF-8"?>
<svg width="18px" height="20px" viewBox="0 0 18 20" version="1.1" xmlns="http://www.w3.org/2000/svg" xmlns:xlink="http://www.w3.org/1999/xlink">
    <!-- Generator: Sketch 59.1 (86144) - https://sketch.com -->
    <title>Combined Shape</title>
    <desc>Created with Sketch.</desc>
    <g id="Page-1" stroke="none" stroke-width="1" fill="none" fill-rule="evenodd">
        <g id="Desktop-HD-Copy-2" transform="translate(-46.000000, -535.000000)" stroke="#FFFFFF" stroke-width="1.3">
            <g id="Group-6" transform="translate(0.000000, 164.000000)">
                <g id="Group-2" transform="translate(30.000000, 355.000000)">
                    <g id="Group-30-Copy-10">
                        <path d="M19.2094862,26.4523715 L16.7905138,26.4523715 C16.7129102,26.4523715 16.65,26.5152817 16.65,26.5928854 L16.65,35.2094862 C16.65,35.2870898 16.7129102,35.35 16.7905138,35.35 L19.2094862,35.35 C19.2870898,35.35 19.35,35.2870898 19.35,35.2094862 L19.35,26.5928854 C19.35,26.5152817 19.2870898,26.4523715 19.2094862,26.4523715 Z M33.2094862,16.65 L30.7905138,16.65 C30.7129102,16.65 30.65,16.7129102 30.65,16.7905138 L30.65,34.8932806 C30.65,34.9708843 30.7129102,35.0337945 30.7905138,35.0337945 L33.2094862,35.0337945 C33.2870898,35.0337945 33.35,34.9708843 33.35,34.8932806 L33.35,16.7905138 C33.35,16.7129102 33.2870898,16.65 33.2094862,16.65 Z M26.2094862,20.6025692 L23.7905138,20.6025692 C23.7129102,20.6025692 23.65,20.6654794 23.65,20.743083 L23.65,34.8932806 C23.65,34.9708843 23.7129102,35.0337945 23.7905138,35.0337945 L26.2094862,35.0337945 C26.2870898,35.0337945 26.35,34.9708843 26.35,34.8932806 L26.35,20.743083 C26.35,20.6654794 26.2870898,20.6025692 26.2094862,20.6025692 Z" id="Combined-Shape"></path>
                    </g>
                </g>
            </g>
        </g>
    </g>
</svg>