<?xml version="1.0" encoding="UTF-8"?>
<svg width="22px" height="22px" viewBox="0 0 22 22" version="1.1" xmlns="http://www.w3.org/2000/svg" xmlns:xlink="http://www.w3.org/1999/xlink">
    <!-- Generator: Sketch 59.1 (86144) - https://sketch.com -->
    <title>Group 30 Copy 10</title>
    <desc>Created with Sketch.</desc>
    <g id="Page-1" stroke="none" stroke-width="1" fill="none" fill-rule="evenodd">
        <g id="Desktop-HD-Copy-2" transform="translate(-45.000000, -605.000000)">
            <g id="Group-6" transform="translate(0.000000, 164.000000)">
                <g id="Group-2-Copy" transform="translate(30.000000, 426.000000)">
                    <g id="Group-30-Copy-10">
                        <rect id="Rectangle" x="0" y="0" width="51" height="51"></rect>
                        <path d="M21.3622239,16.0003746 C21.1280444,16.0260791 20.9523255,16.2263949 20.9574134,16.4618499 L20.9574134,17.7894789 L18.5427541,17.7894789 C17.1493718,17.7894789 16.00026,18.9355938 16.00026,20.3311429 L16.00026,23.0006023 L16.00026,23.0573993 C15.9999133,23.0692237 15.9999133,23.0810616 16.00026,23.092886 L16.00026,33.458336 C16.00026,34.8538828 17.1487673,36 18.5427541,36 L33.4639279,36 C34.8579124,36 35.9993201,34.8538828 35.9993201,33.458336 L35.9993201,23.1212845 C35.9996161,23.1118207 35.9996161,23.1023499 35.9993201,23.092886 C36.0002266,23.0763364 36.0002266,23.0597497 35.9993201,23.0432001 L35.9993201,20.3311429 C35.9993201,18.9355938 34.8573079,17.7894789 33.4639279,17.7894789 L30.9711473,17.7894789 L30.9711473,16.4618499 C30.9730846,16.3388756 30.9250714,16.2203689 30.8380763,16.1334021 C30.7510811,16.0464354 30.6325357,15.9984379 30.5095212,16.0003746 C30.3889693,16.0022432 30.2740991,16.0519161 30.1901881,16.1384627 C30.1062771,16.2250093 30.060201,16.3413378 30.0620991,16.4618499 L30.0620991,17.7894789 L21.8664616,17.7894789 L21.8664616,16.4618499 C21.8683989,16.3388756 21.8203858,16.2203689 21.7333906,16.1334021 C21.6463954,16.0464354 21.5278501,15.9984379 21.4048356,16.0003746 C21.3906395,15.9998751 21.37642,15.9998751 21.3622239,16.0003746 L21.3622239,16.0003746 Z M18.5427541,18.6982303 L20.9574134,18.6982303 L20.9574134,20.0258592 C20.9570571,20.1884291 21.0436109,20.3388026 21.1843875,20.4201905 C21.3251641,20.5015785 21.4987109,20.5015785 21.6394875,20.4201905 C21.7802641,20.3388026 21.8668179,20.1884291 21.8664616,20.0258592 L21.8664616,18.6982303 L30.0620991,18.6982303 L30.0620991,20.0258592 C30.0617428,20.1884291 30.1482966,20.3388026 30.2890732,20.4201905 C30.4298497,20.5015785 30.6033966,20.5015785 30.7441732,20.4201905 C30.8849498,20.3388026 30.9715036,20.1884291 30.9711473,20.0258592 L30.9711473,18.6982303 L33.4639279,18.6982303 C34.3606267,18.6982303 35.0902719,19.4302363 35.0902719,20.3311429 L35.0902719,22.6385103 L16.9093082,22.6385103 L16.9093082,20.3311429 C16.9093082,19.4302363 17.6460531,18.6982303 18.5427541,18.6982303 Z M16.9093082,23.5472617 L35.0902719,23.5472617 L35.0902719,33.458336 C35.0902719,34.3592494 34.3600221,35.0912486 33.4639279,35.0912486 L18.5427541,35.0912486 C17.6466576,35.0912486 16.9093082,34.3592494 16.9093082,33.458336 L16.9093082,23.5472617 Z" id="Shape" stroke="#fff" stroke-width="0.6" fill="#fff"></path>
                    </g>
                </g>
            </g>
        </g>
    </g>
</svg>