<?xml version="1.0" encoding="UTF-8"?>
<svg width="19px" height="23px" viewBox="0 0 19 23" version="1.1" xmlns="http://www.w3.org/2000/svg" xmlns:xlink="http://www.w3.org/1999/xlink">
    <!-- Generator: Sketch 59.1 (86144) - https://sketch.com -->
    <title>Group 30 Copy 7</title>
    <desc>Created with Sketch.</desc>
    <g id="Page-1" stroke="none" stroke-width="1" fill="none" fill-rule="evenodd">
        <g id="Desktop-HD-Copy-2" transform="translate(-44.000000, -462.000000)">
            <g id="Group-6" transform="translate(0.000000, 164.000000)">
                <g id="Group-4-Copy" transform="translate(30.000000, 284.000000)">
                    <g id="Group-30-Copy-7">
                        <rect id="Rectangle" x="0" y="0" width="51" height="51"></rect>
                        <g id="noun_Delete_756863" transform="translate(15.000000, 15.000000)" stroke="#fff" stroke-width="1.5">
                            <g id="Group">
                                <g id="Path">
                                    <path d="M15.9322034,3.03389831 L15.3054728,19.6422578 C15.2771762,20.3921181 14.6452797,21 13.8982964,21 L3.0508561,21 C2.30199064,21 1.67196963,20.3919409 1.64367969,19.6422578 L1.01694915,3.03389831" stroke-linecap="round" stroke-linejoin="round"></path>
                                    <line x1="8.6440678" y1="6.76271186" x2="8.6440678" y2="18.2881356" stroke-linecap="round" stroke-linejoin="round"></line>
                                    <line x1="4.74576271" y1="6.76271186" x2="5.08474576" y2="18.2881356" stroke-linecap="round" stroke-linejoin="round"></line>
                                    <line x1="12.2033898" y1="6.76271186" x2="11.8644068" y2="18.2881356" stroke-linecap="round" stroke-linejoin="round"></line>
                                    <line x1="0" y1="2.86440678" x2="16.9491525" y2="2.86440678" stroke-linecap="round" stroke-linejoin="round"></line>
                                    <path d="M5.15962442,2.45929896 L5.52242476,1.38903796 C5.69648601,0.875557283 6.21897659,0.459298963 6.68504815,0.459298963 L10.4138617,0.459298963 C10.8818996,0.459298963 11.4017944,0.873700243 11.5764851,1.38903796 L11.9392854,2.45929896"></path>
                                </g>
                            </g>
                        </g>
                    </g>
                </g>
            </g>
        </g>
    </g>
</svg>