<?xml version="1.0" encoding="UTF-8"?>
<svg width="20px" height="16px" viewBox="0 0 20 16" version="1.1" xmlns="http://www.w3.org/2000/svg" xmlns:xlink="http://www.w3.org/1999/xlink">
    <!-- Generator: Sketch 59.1 (86144) - https://sketch.com -->
    <title>Combined Shape</title>
    <desc>Created with Sketch.</desc>
    <g id="Page-1" stroke="none" stroke-width="1" fill="none" fill-rule="evenodd">
        <g id="Desktop-HD-Copy-2" transform="translate(-1029.000000, -121.000000)" fill="#FFFFFF" stroke="#FFFFFF" stroke-width="0.2">
            <g id="Group-27-Copy-2" transform="translate(286.000000, 109.000000)">
                <g id="Group-11" transform="translate(639.000000, 0.000000)">
                    <g id="Group-39" transform="translate(14.000000, 11.000000)">
                        <g id="Group-40">
                            <path d="M100.655629,9.84117032 L102.02649,11.0700104 C102.264901,11.245559 102.264901,11.5966562 102.086093,11.7722048 C101.966887,11.8892372 101.847682,11.9477534 101.668874,11.9477534 C101.549669,11.9477534 101.430464,11.8892372 101.370861,11.830721 L100.655629,11.245559 L100.655629,15.5172414 C100.655629,16.1609195 99.6423841,16.1609195 99.6423841,15.5172414 L99.6423841,11.245559 L98.986755,11.830721 C98.7483444,12.0062696 98.3907285,12.0062696 98.2119205,11.7722048 C98.0331126,11.5966562 98.0331126,11.245559 98.2715232,11.0700104 L99.6423841,9.84117032 C99.9403974,9.60710554 100.357616,9.60710554 100.655629,9.84117032 Z M100.238411,2 C102.980132,2 105.18543,4.10658307 105.304636,6.79832811 C107.331126,6.9153605 109,8.553814 109,10.6018809 C109,12.6499478 107.271523,14.3469175 105.125828,14.3469175 L103.02649,14.3469175 C102.370861,14.3469175 102.370861,13.3521421 103.02649,13.3521421 L105.125828,13.3521421 C106.675497,13.3521421 107.927152,12.123302 107.927152,10.6018809 C107.927152,8.96342738 106.496689,7.67607106 104.827815,7.85161964 C104.529801,7.85161964 104.231788,7.61755486 104.291391,7.26645768 C104.410596,4.98432602 102.562914,2.99477534 100.238411,2.99477534 C98.2119205,2.99477534 96.4834437,4.51619645 96.1854305,6.44723093 C96.1854305,6.73981191 95.9470199,6.9153605 95.6490066,6.9153605 C93.7417219,6.73981191 92.013245,8.20271682 92.013245,10.1337513 C92.013245,11.8892372 93.5033113,13.3521421 95.3509934,13.3521421 L97.2715232,13.3521421 C97.9271523,13.3521421 97.9271523,14.3469175 97.2715232,14.3469175 L95.3509934,14.3469175 C92.9668874,14.3469175 91,12.4743992 91,10.1337513 C91,7.79310345 92.9072848,5.92058516 95.2913907,5.86206897 C95.8278146,3.5799373 97.8543046,2 100.238411,2 Z" id="Combined-Shape"></path>
                        </g>
                    </g>
                </g>
            </g>
        </g>
    </g>
</svg>