<?xml version="1.0" encoding="UTF-8"?>
<svg width="776px" height="203px" viewBox="0 0 776 203" version="1.1" xmlns="http://www.w3.org/2000/svg" xmlns:xlink="http://www.w3.org/1999/xlink">
    <!-- Generator: Sketch 59.1 (86144) - https://sketch.com -->
    <title>Path</title>
    <desc>Created with Sketch.</desc>
    <defs>
        <rect id="path-1" x="0" y="0.0070809726" width="776" height="203" rx="20"></rect>
        <linearGradient x1="48.431562%" y1="11.9412599%" x2="50.3438694%" y2="57.5780177%" id="linearGradient-3">
            <stop stop-color="#E5EAF9" offset="0%"></stop>
            <stop stop-color="#F4F6FF" offset="100%"></stop>
        </linearGradient>
        <linearGradient x1="48.9264669%" y1="-17.1871301%" x2="50.0948087%" y2="69.5415656%" id="linearGradient-4">
            <stop stop-color="#A9C6FF" offset="0%"></stop>
            <stop stop-color="#DCE9FF" offset="100%"></stop>
        </linearGradient>
        <linearGradient x1="60.1780237%" y1="-16.179165%" x2="48.9236144%" y2="67.1294712%" id="linearGradient-5">
            <stop stop-color="#A9C6FF" offset="0%"></stop>
            <stop stop-color="#DCE9FF" offset="100%"></stop>
        </linearGradient>
        <linearGradient x1="54.6752628%" y1="-12.5264413%" x2="47.5604685%" y2="65.8027396%" id="linearGradient-6">
            <stop stop-color="#A9C6FF" offset="0%"></stop>
            <stop stop-color="#DCE9FF" offset="100%"></stop>
        </linearGradient>
        <linearGradient x1="-772.84607%" y1="2840.70412%" x2="335.221434%" y2="-917.267883%" id="linearGradient-7">
            <stop stop-color="#A9C6FF" offset="0%"></stop>
            <stop stop-color="#DCE9FF" offset="100%"></stop>
        </linearGradient>
        <linearGradient x1="45.7912449%" y1="2.14047616%" x2="61.1809324%" y2="48.80983%" id="linearGradient-8">
            <stop stop-color="#A9C6FF" offset="0%"></stop>
            <stop stop-color="#DCE9FF" offset="100%"></stop>
        </linearGradient>
        <linearGradient x1="-772.84607%" y1="2840.70412%" x2="335.221434%" y2="-917.267883%" id="linearGradient-9">
            <stop stop-color="#A9C6FF" offset="0%"></stop>
            <stop stop-color="#DCE9FF" offset="100%"></stop>
        </linearGradient>
        <linearGradient x1="57.7967268%" y1="-16.179165%" x2="49.1754505%" y2="67.1294712%" id="linearGradient-10">
            <stop stop-color="#A9C6FF" offset="0%"></stop>
            <stop stop-color="#DCE9FF" offset="100%"></stop>
        </linearGradient>
        <linearGradient x1="48.6686473%" y1="-17.1871301%" x2="50.117578%" y2="69.5415656%" id="linearGradient-11">
            <stop stop-color="#A9C6FF" offset="0%"></stop>
            <stop stop-color="#DCE9FF" offset="100%"></stop>
        </linearGradient>
        <linearGradient x1="60.1780237%" y1="-16.179165%" x2="48.9236144%" y2="67.1294712%" id="linearGradient-12">
            <stop stop-color="#A9C6FF" offset="0%"></stop>
            <stop stop-color="#DCE9FF" offset="100%"></stop>
        </linearGradient>
        <linearGradient x1="54.6752628%" y1="-12.5264413%" x2="47.5604685%" y2="65.8027396%" id="linearGradient-13">
            <stop stop-color="#A9C6FF" offset="0%"></stop>
            <stop stop-color="#DCE9FF" offset="100%"></stop>
        </linearGradient>
    </defs>
    <g id="Page-1" stroke="none" stroke-width="1" fill="none" fill-rule="evenodd">
        <g id="Desktop-HD-Copy-2" transform="translate(-286.000000, -170.000000)">
            <g id="Group-15-Copy" transform="translate(286.000000, 169.000000)">
                <g id="Path" transform="translate(0.000000, 0.992919)">
                    <mask id="mask-2" fill="white">
                        <use xlink:href="#path-1"></use>
                    </mask>
                    <use id="Mask" fill="#668BFB" opacity="0.132277777" xlink:href="#path-1"></use>
                    <path d="M781.498896,212.878748 C771.175401,223.22918 671.429059,228.022907 668.826543,228.015192 C650.805182,228.015192 627.101711,194.324056 606.010364,207.995061 C563.3689,235.634437 461.217709,229.98378 462.145961,212.878748 C462.681169,203.203237 434.894657,154.014945 456.4624,111.950694 C469.429177,86.6611792 526.006483,86.878166 550.546364,68.1791458 C590.872569,37.4511849 540.716125,-18.9858381 608.025998,-21.9858381 C608.383463,-22.0017702 608.748709,-21.9858381 609.106749,-21.9858381 C666.804278,-19.1912877 770.809971,-26.7693116 786.364833,4.74553472 C798.518311,29.3402267 818.377046,175.92711 781.498896,212.878748 Z" fill="url(#linearGradient-3)" fill-rule="nonzero" opacity="0.594656808" mask="url(#mask-2)" transform="translate(625.485912, 103.011136) rotate(-7.000000) translate(-625.485912, -103.011136) "></path>
                    <g id="Group-71" opacity="0.92313058" mask="url(#mask-2)">
                        <g transform="translate(699.000000, 29.007081)" id="Path">
                            <path d="M21.8924453,171.380733 C21.8924453,171.380733 14.4962327,134.560622 20.5817241,106.963584 C26.6672156,79.3665464 13.6320209,83.7054006 19.5446699,64.8983522 C25.457319,46.0913037 11.3778684,52.4030936 17.9674834,33.4597041 C24.5570984,14.5163146 11.1042013,14.7168161 16.1670421,0 C20.9274088,11.155908 33.09119,18.5905067 30.0232381,31.5028086 C26.9552862,44.4151105 41.6828956,53.2050999 35.2301142,67.793595 C28.7773327,82.3820901 52.9176491,111.46284 46.5800958,139.43682 C40.2425426,167.410801 24.7155372,191.928135 21.8924453,171.380733 Z" stroke="none" fill="url(#linearGradient-4)" fill-rule="nonzero"></path>
                            <path d="M5.12215911,173.470075 C5.12215911,173.470075 46.3882727,105.276562 43.3707332,74.3161742 C40.3531936,43.3557864 65.9986789,42.4699693 67.2085754,70.6720811 C68.4184719,98.874193 27.5988678,180.347761 9.37120048,186.080366 C-8.8564668,191.812971 5.12215911,173.470075 5.12215911,173.470075 Z" stroke="none" fill="url(#linearGradient-5)" fill-rule="nonzero"></path>
                            <path d="M53.9285207,50.2766826 C53.9285207,50.2766826 66.9637154,98.0747971 3.56657787,187.189437" stroke="#FFFFFF" stroke-width="0.660000041" fill="none"></path>
                            <path d="M43.529172,78.399575 C43.529172,78.399575 51.5807453,83.0447135 51.7031753,89.1518102 C56.2805319,84.5189247 61.3854441,80.4388622 66.913303,76.9952308" stroke="#FFFFFF" stroke-width="0.660000041" fill="none"></path>
                            <path d="M39.4169642,100.465783 C39.4169642,100.465783 45.0775515,106.659301 44.8975073,111.815765 C44.8975073,111.815765 53.8132924,103.706577 59.9059857,103.627358" stroke="#FFFFFF" stroke-width="0.660000041" fill="none"></path>
                            <path d="M30.5659949,124.152388 C30.5659949,124.152388 35.405581,129.798572 34.8006328,135.459159 C43.0970661,131.764654 47.8358275,132.247172 47.8358275,132.247172" stroke="#FFFFFF" stroke-width="0.660000041" fill="none"></path>
                            <path d="M22.1543334,142.127994 C24.5589446,145.458333 25.6185461,149.573291 25.1214606,153.650818 C32.0567603,149.401776 38.01262,150.957358 38.01262,150.957358" stroke="#FFFFFF" stroke-width="0.660000041" fill="none"></path>
                            <path d="M14.2395936,157.359727 C14.2395936,157.359727 16.4865443,163.57485 15.9680172,168.788928 C22.7016675,166.297117 27.4404289,167.903111 27.4404289,167.903111" stroke="#FFFFFF" stroke-width="0.660000041" fill="none"></path>
                            <path d="M17.8836867,168.414436 C17.8836867,168.414436 18.9855568,112.355897 32.4168486,95.0788628 C45.8481403,77.8018285 30.933285,67.6401381 19.6121103,83.9521358 C8.29093572,100.264134 1.9533825,164.06457 10.6171058,174.312682 C19.2808292,184.560793 17.8836867,168.414436 17.8836867,168.414436 Z" stroke="none" fill="url(#linearGradient-6)" fill-rule="nonzero"></path>
                            <path d="M35.1751246,76.8151867 C35.1751246,76.8151867 9.45041989,100.336151 13.6490489,177.157379" stroke="#FFFFFF" stroke-width="0.660000041" fill="none"></path>
                            <path d="M30.7892497,97.4554453 C30.7892497,97.4554453 24.2572488,97.18898 21.8878681,100.775459 C20.9092404,96.2943549 19.4082131,91.9435513 17.415572,87.8122819" stroke="#FFFFFF" stroke-width="0.660000041" fill="none"></path>
                            <path d="M24.9342147,112.118239 C24.9342147,112.118239 19.2448203,113.67382 17.4083702,116.806588 C17.4083702,116.806588 15.1614196,108.632585 11.5677388,106.292011" stroke="#FFFFFF" stroke-width="0.660000041" fill="none"></path>
                            <path d="M21.3117269,129.539308 C21.3117269,129.539308 16.313702,131.080486 14.5420678,134.666965 C10.9987994,129.352063 8.00286512,127.861297 8.00286512,127.861297" stroke="#FFFFFF" stroke-width="0.660000041" fill="none"></path>
                            <path d="M19.5400927,143.373899 C16.8518583,144.454638 14.6724804,146.513083 13.4401977,149.135311 C10.9123782,144.007654 6.78576683,142.689731 6.78576683,142.689731" stroke="#FFFFFF" stroke-width="0.660000041" fill="none"></path>
                            <path d="M18.5102403,155.41525 C18.5102403,155.41525 14.8445419,158.295956 13.1881359,161.558356 C10.120184,157.554174 6.70654742,156.71877 6.70654742,156.71877" stroke="#FFFFFF" stroke-width="0.660000041" fill="none"></path>
                        </g>
                    </g>
                    <g id="Group-69" opacity="0.92313058" mask="url(#mask-2)">
                        <g transform="translate(471.000000, 134.007081)">
                            <path d="M7.57517852,92.182026 C7.79268408,92.3350091 7.94029438,92.5683402 7.98536918,92.830424 C8.0788781,93.3741244 7.71440749,93.8908364 7.1708837,93.9851247 C6.6273599,94.079413 6.11017192,93.7156475 6.01511945,93.1722149 C5.92006698,92.6287824 6.28306884,92.1110373 6.8263227,92.0152057 C7.08819136,91.9690113 7.35767295,92.0290429 7.57517852,92.182026 Z M14.5789016,91.1822765 C14.7954199,91.3353244 14.9417438,91.5685367 14.985304,91.8300041 C15.054343,92.2286169 14.8761823,92.6295196 14.5339959,92.8455513 C14.1918096,93.0615831 13.753084,93.0501378 13.4226376,92.8165588 C13.0921912,92.5829797 12.935195,92.1733336 13.0249425,91.7788632 C13.1146899,91.3843927 13.4334809,91.0828958 13.8324883,91.0151258 C14.0936396,90.9690465 14.3623834,91.0292286 14.5789016,91.1822765 Z M22.5789016,89.1822765 C22.7954199,89.3353244 22.9417438,89.5685367 22.985304,89.8300041 C23.054343,90.2286169 22.8761823,90.6295196 22.5339959,90.8455513 C22.1918096,91.0615831 21.753084,91.0501378 21.4226376,90.8165588 C21.0921912,90.5829797 20.935195,90.1733336 21.0249425,89.7788632 C21.1146899,89.3843927 21.4334809,89.0828958 21.8324883,89.0151258 C22.0936396,88.9690465 22.3623834,89.0292286 22.5789016,89.1822765 Z M29.985304,88.8295108 C30.054343,89.2282917 29.8761823,89.6293634 29.5339959,89.8454862 C29.1918096,90.061609 28.753084,90.050159 28.4226376,89.8164814 C28.0921912,89.5828039 27.935195,89.1729851 28.0249425,88.7783483 C28.1146899,88.3837116 28.4334809,88.0820875 28.8324883,88.014289 C29.37575,87.9219791 29.8913052,88.2865576 29.985304,88.8295108 Z M37.985304,87.8295108 C38.054343,88.2282917 37.8761823,88.6293634 37.5339959,88.8454862 C37.1918096,89.061609 36.753084,89.050159 36.4226376,88.8164814 C36.0921912,88.5828039 35.935195,88.1729851 36.0249425,87.7783483 C36.1146899,87.3837116 36.4334809,87.0820875 36.8324883,87.014289 C37.37575,86.9219791 37.8913052,87.2865576 37.985304,87.8295108 Z M6.98530402,86.8295108 C7.05434299,87.2282917 6.87618226,87.6293634 6.53399592,87.8454862 C6.19180958,88.061609 5.75308401,88.050159 5.42263761,87.8164814 C5.09219122,87.5828039 4.93519502,87.1729851 5.02494247,86.7783483 C5.11468991,86.3837116 5.43348091,86.0820875 5.83248834,86.014289 C6.37574998,85.9219791 6.89130521,86.2865576 6.98530402,86.8295108 Z M44.985304,86.8295108 C45.054343,87.2282917 44.8761823,87.6293634 44.5339959,87.8454862 C44.1918096,88.061609 43.753084,88.050159 43.4226376,87.8164814 C43.0921912,87.5828039 42.935195,87.1729851 43.0249425,86.7783483 C43.1146899,86.3837116 43.4334809,86.0820875 43.8324883,86.014289 C44.37575,85.9219791 44.8913052,86.2865576 44.985304,86.8295108 Z M13.9853692,85.8299336 C14.0788781,86.3738619 13.7144075,86.8907906 13.1708837,86.9851184 C12.6273599,87.0794463 12.1101719,86.7155282 12.0151194,86.1718678 C11.920067,85.6282073 12.2830688,85.1102452 12.8263227,85.0143734 C13.3709308,84.9218185 13.8882824,85.2858517 13.9853692,85.8299336 Z M21.9853692,83.8299336 C22.0788781,84.3738619 21.7144075,84.8907906 21.1708837,84.9851184 C20.6273599,85.0794463 20.1101719,84.7155282 20.0151194,84.1718678 C19.920067,83.6282073 20.2830688,83.1102452 20.8263227,83.0143734 C21.3709308,82.9218185 21.8882824,83.2858517 21.9853692,83.8299336 Z M28.9853692,82.8299336 C29.0788781,83.3738619 28.7144075,83.8907906 28.1708837,83.9851184 C27.6273599,84.0794463 27.1101719,83.7155282 27.0151194,83.1718678 C26.920067,82.6282073 27.2830688,82.1102452 27.8263227,82.0143734 C28.3709308,81.9218185 28.8882824,82.2858517 28.9853692,82.8299336 Z M36.5751785,81.182026 C36.7926841,81.3350091 36.9402944,81.5683402 36.9853692,81.830424 C37.0788781,82.3741244 36.7144075,82.8908364 36.1708837,82.9851247 C35.6273599,83.079413 35.1101719,82.7156475 35.0151194,82.1722149 C34.920067,81.6287824 35.2830688,81.1110373 35.8263227,81.0152057 C36.0881914,80.9690113 36.357673,81.0290429 36.5751785,81.182026 Z M5.98536918,80.8299336 C6.0788781,81.3738619 5.71440749,81.8907906 5.1708837,81.9851184 C4.6273599,82.0794463 4.11017192,81.7155282 4.01511945,81.1718678 C3.92006698,80.6282073 4.28306884,80.1102452 4.8263227,80.0143734 C5.37093076,79.9218185 5.88828241,80.2858517 5.98536918,80.8299336 Z M43.5751785,80.182026 C43.7926841,80.3350091 43.9402944,80.5683402 43.9853692,80.830424 C44.0788781,81.3741244 43.7144075,81.8908364 43.1708837,81.9851247 C42.6273599,82.079413 42.1101719,81.7156475 42.0151194,81.1722149 C41.920067,80.6287824 42.2830688,80.1110373 42.8263227,80.0152057 C43.0881914,79.9690113 43.357673,80.0290429 43.5751785,80.182026 Z M12.985304,79.8289471 C13.054343,80.22792 12.8761823,80.6291849 12.5339959,80.8454118 C12.1918096,81.0616387 11.753084,81.0501831 11.4226376,80.8163931 C11.0921912,80.582603 10.935195,80.1725868 11.0249425,79.77776 C11.1146899,79.3829331 11.4334809,79.0811638 11.8324883,79.0133326 C12.3749142,78.9246285 12.8881437,79.2877371 12.985304,79.8289471 Z M20.985304,78.8295108 C21.054343,79.2282917 20.8761823,79.6293634 20.5339959,79.8454862 C20.1918096,80.061609 19.753084,80.050159 19.4226376,79.8164814 C19.0921912,79.5828039 18.935195,79.1729851 19.0249425,78.7783483 C19.1146899,78.3837116 19.4334809,78.0820875 19.8324883,78.014289 C20.37575,77.9219791 20.8913052,78.2865576 20.985304,78.8295108 Z M27.985304,76.8295108 C28.054343,77.2282917 27.8761823,77.6293634 27.5339959,77.8454862 C27.1918096,78.061609 26.753084,78.050159 26.4226376,77.8164814 C26.0921912,77.5828039 25.935195,77.1729851 26.0249425,76.7783483 C26.1146899,76.3837116 26.4334809,76.0820875 26.8324883,76.014289 C27.37575,75.9219791 27.8913052,76.2865576 27.985304,76.8295108 Z M35.985304,75.8295108 C36.054343,76.2282917 35.8761823,76.6293634 35.5339959,76.8454862 C35.1918096,77.061609 34.753084,77.050159 34.4226376,76.8164814 C34.0921912,76.5828039 33.935195,76.1729851 34.0249425,75.7783483 C34.1146899,75.3837116 34.4334809,75.0820875 34.8324883,75.014289 C35.37575,74.9219791 35.8913052,75.2865576 35.985304,75.8295108 Z M4.5789016,74.1822765 C4.79541985,74.3353244 4.94174375,74.5685367 4.98530402,74.8300041 C5.05434299,75.2286169 4.87618226,75.6295196 4.53399592,75.8455513 C4.19180958,76.0615831 3.75308401,76.0501378 3.42263761,75.8165588 C3.09219122,75.5829797 2.93519502,75.1733336 3.02494247,74.7788632 C3.11468991,74.3843927 3.43348091,74.0828958 3.83248834,74.0151258 C4.09363962,73.9690465 4.36238335,74.0292286 4.5789016,74.1822765 Z M42.985304,74.8295108 C43.054343,75.2282917 42.8761823,75.6293634 42.5339959,75.8454862 C42.1918096,76.061609 41.753084,76.050159 41.4226376,75.8164814 C41.0921912,75.5828039 40.935195,75.1729851 41.0249425,74.7783483 C41.1146899,74.3837116 41.4334809,74.0820875 41.8324883,74.014289 C42.37575,73.9219791 42.8913052,74.2865576 42.985304,74.8295108 Z M11.5789016,73.1822765 C11.7954199,73.3353244 11.9417438,73.5685367 11.985304,73.8300041 C12.054343,74.2286169 11.8761823,74.6295196 11.5339959,74.8455513 C11.1918096,75.0615831 10.753084,75.0501378 10.4226376,74.8165588 C10.0921912,74.5829797 9.93519502,74.1733336 10.0249425,73.7788632 C10.1146899,73.3843927 10.4334809,73.0828958 10.8324883,73.0151258 C11.0936396,72.9690465 11.3623834,73.0292286 11.5789016,73.1822765 Z M19.9853692,72.8299336 C20.0788781,73.3738619 19.7144075,73.8907906 19.1708837,73.9851184 C18.6273599,74.0794463 18.1101719,73.7155282 18.0151194,73.1718678 C17.920067,72.6282073 18.2830688,72.1102452 18.8263227,72.0143734 C19.3709308,71.9218185 19.8882824,72.2858517 19.9853692,72.8299336 Z M26.5751785,70.182026 C26.7926841,70.3350091 26.9402944,70.5683402 26.9853692,70.830424 C27.0788781,71.3741244 26.7144075,71.8908364 26.1708837,71.9851247 C25.6273599,72.079413 25.1101719,71.7156475 25.0151194,71.1722149 C24.920067,70.6287824 25.2830688,70.1110373 25.8263227,70.0152057 C26.0881914,69.9690113 26.357673,70.0290429 26.5751785,70.182026 Z M34.5751785,69.182026 C34.7926841,69.3350091 34.9402944,69.5683402 34.9853692,69.830424 C35.0788781,70.3741244 34.7144075,70.8908364 34.1708837,70.9851247 C33.6273599,71.079413 33.1101719,70.7156475 33.0151194,70.1722149 C32.920067,69.6287824 33.2830688,69.1110373 33.8263227,69.0152057 C34.0881914,68.9690113 34.357673,69.0290429 34.5751785,69.182026 Z M3.98536918,68.8299336 C4.0788781,69.3738619 3.71440749,69.8907906 3.1708837,69.9851184 C2.6273599,70.0794463 2.11017192,69.7155282 2.01511945,69.1718678 C1.92006698,68.6282073 2.28306884,68.1102452 2.8263227,68.0143734 C3.37093076,67.9218185 3.88828241,68.2858517 3.98536918,68.8299336 Z M41.5751785,68.182026 C41.7926841,68.3350091 41.9402944,68.5683402 41.9853692,68.830424 C42.0788781,69.3741244 41.7144075,69.8908364 41.1708837,69.9851247 C40.6273599,70.079413 40.1101719,69.7156475 40.0151194,69.1722149 C39.920067,68.6287824 40.2830688,68.1110373 40.8263227,68.0152057 C41.0881914,67.9690113 41.357673,68.0290429 41.5751785,68.182026 Z M10.9853692,67.8299336 C11.0788781,68.3738619 10.7144075,68.8907906 10.1708837,68.9851184 C9.6273599,69.0794463 9.11017192,68.7155282 9.01511945,68.1718678 C8.92006698,67.6282073 9.28306884,67.1102452 9.8263227,67.0143734 C10.3709308,66.9218185 10.8882824,67.2858517 10.9853692,67.8299336 Z M18.985304,66.8295108 C19.054343,67.2282917 18.8761823,67.6293634 18.5339959,67.8454862 C18.1918096,68.061609 17.753084,68.050159 17.4226376,67.8164814 C17.0921912,67.5828039 16.935195,67.1729851 17.0249425,66.7783483 C17.1146899,66.3837116 17.4334809,66.0820875 17.8324883,66.014289 C18.37575,65.9219791 18.8913052,66.2865576 18.985304,66.8295108 Z M25.985304,64.8295108 C26.054343,65.2282917 25.8761823,65.6293634 25.5339959,65.8454862 C25.1918096,66.061609 24.753084,66.050159 24.4226376,65.8164814 C24.0921912,65.5828039 23.935195,65.1729851 24.0249425,64.7783483 C24.1146899,64.3837116 24.4334809,64.0820875 24.8324883,64.014289 C25.37575,63.9219791 25.8913052,64.2865576 25.985304,64.8295108 Z M32.5789016,63.1822765 C32.7954199,63.3353244 32.9417438,63.5685367 32.985304,63.8300041 C33.054343,64.2286169 32.8761823,64.6295196 32.5339959,64.8455513 C32.1918096,65.0615831 31.753084,65.0501378 31.4226376,64.8165588 C31.0921912,64.5829797 30.935195,64.1733336 31.0249425,63.7788632 C31.1146899,63.3843927 31.4334809,63.0828958 31.8324883,63.0151258 C32.0936396,62.9690465 32.3623834,63.0292286 32.5789016,63.1822765 Z M2.5789016,62.1822765 C2.79541985,62.3353244 2.94174375,62.5685367 2.98530402,62.8300041 C3.05434299,63.2286169 2.87618226,63.6295196 2.53399592,63.8455513 C2.19180958,64.0615831 1.75308401,64.0501378 1.42263761,63.8165588 C1.09219122,63.5829797 0.935195019,63.1733336 1.02494247,62.7788632 C1.11468991,62.3843927 1.43348091,62.0828958 1.83248834,62.0151258 C2.09363962,61.9690465 2.36238335,62.0292286 2.5789016,62.1822765 Z M40.5789016,62.1822765 C40.7954199,62.3353244 40.9417438,62.5685367 40.985304,62.8300041 C41.054343,63.2286169 40.8761823,63.6295196 40.5339959,63.8455513 C40.1918096,64.0615831 39.753084,64.0501378 39.4226376,63.8165588 C39.0921912,63.5829797 38.935195,63.1733336 39.0249425,62.7788632 C39.1146899,62.3843927 39.4334809,62.0828958 39.8324883,62.0151258 C40.0936396,61.9690465 40.3623834,62.0292286 40.5789016,62.1822765 Z M9.5789016,61.1822765 C9.79541985,61.3353244 9.94174375,61.5685367 9.98530402,61.8300041 C10.054343,62.2286169 9.87618226,62.6295196 9.53399592,62.8455513 C9.19180958,63.0615831 8.75308401,63.0501378 8.42263761,62.8165588 C8.09219122,62.5829797 7.93519502,62.1733336 8.02494247,61.7788632 C8.11468991,61.3843927 8.43348091,61.0828958 8.83248834,61.0151258 C9.09363962,60.9690465 9.36238335,61.0292286 9.5789016,61.1822765 Z M17.5751785,60.182026 C17.7926841,60.3350091 17.9402944,60.5683402 17.9853692,60.830424 C18.0788781,61.3741244 17.7144075,61.8908364 17.1708837,61.9851247 C16.6273599,62.079413 16.1101719,61.7156475 16.0151194,61.1722149 C15.920067,60.6287824 16.2830688,60.1110373 16.8263227,60.0152057 C17.0881914,59.9690113 17.357673,60.0290429 17.5751785,60.182026 Z M24.9853692,58.8293732 C25.0788781,59.373562 24.7144075,59.8907383 24.1708837,59.9851113 C23.6273599,60.0794843 23.1101719,59.715392 23.0151194,59.1714712 C22.920067,58.6275504 23.2830688,58.1093401 23.8263227,58.0134224 C24.3701076,57.9244415 24.8851589,58.2870296 24.9853692,58.8293732 Z M31.9853692,57.8299336 C32.0788781,58.3738619 31.7144075,58.8907906 31.1708837,58.9851184 C30.6273599,59.0794463 30.1101719,58.7155282 30.0151194,58.1718678 C29.920067,57.6282073 30.2830688,57.1102452 30.8263227,57.0143734 C31.3709308,56.9218185 31.8882824,57.2858517 31.9853692,57.8299336 Z M1.58253362,56.1896652 C1.80013999,56.3463827 1.94623819,56.583514 1.98840952,56.8484406 C2.07136057,57.3920528 1.70024812,57.9007409 1.15750916,57.9873651 C0.614770193,58.0739894 0.103904432,57.7060702 0.0137088039,57.1636142 C-0.076486824,56.6211582 0.287806489,56.1075591 0.829341504,56.013694 C1.09380987,55.9696056 1.36492724,56.0329478 1.58253362,56.1896652 Z M39.9853692,56.8299336 C40.0788781,57.3738619 39.7144075,57.8907906 39.1708837,57.9851184 C38.6273599,58.0794463 38.1101719,57.7155282 38.0151194,57.1718678 C37.920067,56.6282073 38.2830688,56.1102452 38.8263227,56.0143734 C39.3709308,55.9218185 39.8882824,56.2858517 39.9853692,56.8299336 Z M8.98689406,55.8384484 C9.05227742,56.2390688 8.86918155,56.6394984 8.52345415,56.8519888 C8.17772675,57.0644791 7.73791886,57.0468975 7.41024208,56.8074873 C7.0825653,56.5680771 6.93199158,56.1543088 7.02912005,55.7601849 C7.12624852,55.366061 7.45182047,55.0697285 7.85318582,55.0101282 C8.39299143,54.9333997 8.89569308,55.3006881 8.98689406,55.8384484 Z M16.5811564,54.1862565 C16.7990162,54.3418821 16.9453661,54.5783856 16.9874347,54.8428079 C17.0739017,55.3862974 16.7049776,55.8975043 16.1619588,55.9866447 C15.61894,56.075785 15.1059656,55.7093479 15.0141671,55.1667335 C14.9223687,54.6241191 15.2862563,54.1093145 15.8283738,54.0148467 C16.0921285,53.9688856 16.3632966,54.030631 16.5811564,54.1862565 Z M23.5818502,53.1843741 C23.7985208,53.3387316 23.944195,53.5735129 23.9862418,53.8361273 C24.0769727,54.3803123 23.70941,54.8950558 23.1650589,54.986131 C22.6207078,55.0772063 22.1054885,54.7101609 22.013992,54.1661039 C21.9224955,53.622047 22.2893336,53.1067873 22.833556,53.0149469 C23.0956212,52.9689838 23.3651795,53.0300166 23.5818502,53.1843741 Z M30.5789016,51.1822765 C30.7954199,51.3353244 30.9417438,51.5685367 30.985304,51.8300041 C31.054343,52.2286169 30.8761823,52.6295196 30.5339959,52.8455513 C30.1918096,53.0615831 29.753084,53.0501378 29.4226376,52.8165588 C29.0921912,52.5829797 28.935195,52.1733336 29.0249425,51.7788632 C29.1146899,51.3843927 29.4334809,51.0828958 29.8324883,51.0151258 C30.0936396,50.9690465 30.3623834,51.0292286 30.5789016,51.1822765 Z M38.5758603,50.1801646 C38.7922037,50.3318943 38.9391554,50.5635249 38.9842121,50.8238237 C39.0558369,51.2224586 38.8797043,51.6248922 38.5382033,51.8428799 C38.1967023,52.0608675 37.7573482,52.0513125 37.4256561,51.8186844 C37.0939639,51.5860562 36.9355098,51.1763461 37.0244133,50.7812023 C37.1133168,50.3860585 37.4320014,50.083602 37.8313973,50.0153115 C38.0916105,49.9691099 38.3595169,50.0284348 38.5758603,50.1801646 Z" id="Combined-Shape" fill="url(#linearGradient-7)" fill-rule="nonzero" opacity="0.521809896"></path>
                            <g id="Group-6" stroke-width="1" fill="none" fill-rule="evenodd" transform="translate(278.500000, 35.500000) rotate(45.000000) translate(-278.500000, -35.500000) translate(266.000000, -2.000000)">
                                <path d="M22.2231637,52.8788083 C22.2231637,52.8788083 -7.93355518,10.2260899 2.01220445,1.47449022 C11.9588441,-7.27798944 25.5187636,24.6105693 22.2231637,52.8788083" id="Fill-161" fill="url(#linearGradient-8)" fill-rule="nonzero"></path>
                                <path d="M4.82732434,6.51953003 C20.6250837,30.9351291 23.4463636,58.2820081 23.8282836,73.8280875 C23.8318036,73.9495275 23.9321236,74.0454475 24.0535636,74.0428607 C24.1750036,74.0401675 24.2709236,73.9389675 24.2683368,73.8175275 C23.8837236,58.2318481 21.0615637,30.8048891 5.19692433,6.28017004 C5.13092433,6.17809004 4.99452433,6.14905005 4.89244434,6.21505004 C4.79036434,6.28105004 4.76132434,6.41745004 4.82732434,6.51953003" id="Fill-162" fill="#FFFFFF"></path>
                                <path d="M20.8459637,32.3880091 C20.7491637,36.3295289 20.5106837,39.8996888 20.2264438,42.9902486 C20.2158838,43.1116886 20.3047638,43.2181686 20.4253237,43.2296086 C20.5467637,43.2410486 20.6541237,43.1521686 20.6646837,43.0307286 C20.9498037,39.9313688 21.1882837,36.3515289 21.2859637,32.3994491 C21.2894837,32.2780091 21.1926837,32.1768091 21.0712437,32.1732358 C20.9498037,32.1706491 20.8494837,32.2665691 20.8459637,32.3880091" id="Fill-163" fill="#FFFFFF"></path>
                                <path d="M16.3210039,17.8988096 C16.2242039,21.8403295 15.9857239,25.4104893 15.7014839,28.5010492 C15.6900439,28.6216092 15.7798039,28.7289692 15.9003639,28.7404092 C16.0218039,28.7509692 16.1282839,28.6620892 16.1397239,28.5415292 C16.4248439,25.4421693 16.6633239,21.8623294 16.7610039,17.9093696 C16.7636439,17.7879296 16.6677239,17.6876096 16.5462839,17.6840364 C16.4248439,17.6814496 16.3245239,17.7773696 16.3210039,17.8988096" id="Fill-164" fill="#FFFFFF"></path>
                                <path d="M9.50980416,4.8167301 C9.67612416,6.23177004 9.75092415,7.81928998 9.75092415,9.42968992 C9.75092415,11.1404099 9.66732416,12.8766498 9.52124416,14.4632897 C9.51068416,14.5847297 9.59956416,14.6920897 9.72012415,14.7026497 C9.84156415,14.7140897 9.94892415,14.6252097 9.95948415,14.5037697 C10.1064441,12.9030498 10.1909241,11.1544899 10.1909241,9.42968992 C10.1909241,7.80520998 10.1161241,6.20273004 9.94628415,4.7648101 C9.93220415,4.6442501 9.82308415,4.55801011 9.70252416,4.57209011 C9.58196416,4.58617011 9.49572416,4.6961701 9.50980416,4.8167301" id="Fill-165" fill="#FFFFFF"></path>
                                <path d="M3.87164438,12.2624098 C6.38052428,13.7900898 9.22292417,16.0789697 11.4739641,18.2024096 C11.5619641,18.2851296 11.7010041,18.2816096 11.7846041,18.1927296 C11.8682041,18.1047296 11.8638041,17.9656896 11.7758041,17.8820896 C9.50452416,15.7401697 6.64892427,13.4389698 4.10044437,11.8866498 C3.99660437,11.8232898 3.86196438,11.8567298 3.79860438,11.9605698 C3.73524438,12.0644098 3.76780438,12.1990498 3.87164438,12.2624098" id="Fill-166" fill="#FFFFFF"></path>
                                <path d="M9.83540415,27.5840892 C12.3442841,29.1117692 15.1858039,31.4006491 17.4368439,33.524089 C17.5257239,33.607689 17.6647639,33.603289 17.7483639,33.515289 C17.8310838,33.426409 17.8275638,33.287369 17.7386839,33.203769 C15.4674039,31.0627291 12.612684,28.7606492 10.0642041,27.2083292 C9.96036415,27.1449692 9.82484415,27.1784092 9.76148415,27.2822492 C9.69900416,27.3860892 9.73156415,27.5216092 9.83540415,27.5840892" id="Fill-168" fill="#FFFFFF"></path>
                            </g>
                        </g>
                    </g>
                    <g id="Group-69-Copy" opacity="0.92313058" mask="url(#mask-2)">
                        <g transform="translate(759.788396, 108.761509) rotate(10.000000) translate(-759.788396, -108.761509) translate(727.288396, -5.238491)">
                            <path d="M6.92539543,38.1032096 C7.11680032,38.2378347 7.24669738,38.4431661 7.2863632,38.6737999 C7.36865106,39.1522561 7.04791693,39.6069627 6.56961601,39.6899364 C6.09131508,39.7729101 5.63618968,39.4527965 5.55254351,38.9745758 C5.46889734,38.4963552 5.78833896,38.0407395 6.26640234,37.9564078 C6.49684675,37.9157567 6.73399055,37.9685845 6.92539543,38.1032096 Z M13.0886715,37.2234301 C13.2792076,37.3581123 13.4079726,37.563339 13.4463056,37.7934303 C13.5070599,38.1442096 13.3502785,38.497004 13.0491545,38.6871119 C12.7480305,38.8772198 12.3619521,38.867148 12.0711592,38.6615984 C11.7803664,38.4560489 11.6422098,38.0955603 11.7211875,37.7484263 C11.8001653,37.4012923 12.0807013,37.1359751 12.4318279,37.0763375 C12.661641,37.0357877 12.8981355,37.088748 13.0886715,37.2234301 Z M20.1286712,35.4634302 C20.3192073,35.5981123 20.4479723,35.8033391 20.4863054,36.0334304 C20.5470597,36.3842097 20.3902782,36.737004 20.0891542,36.927112 C19.7880303,37.1172199 19.4019518,37.1071481 19.111159,36.9015985 C18.8203662,36.696049 18.6822095,36.3355604 18.7611873,35.9884264 C18.840165,35.6412924 19.1207011,35.3759751 19.4718276,35.3163376 C19.7016407,35.2757878 19.9381352,35.328748 20.1286712,35.4634302 Z M26.6463051,35.1529964 C26.7070594,35.5039235 26.550278,35.8568666 26.249154,36.0470547 C25.94803,36.2372428 25.5619516,36.2271667 25.2711587,36.0215305 C24.9803659,35.8158943 24.8422093,35.4552538 24.921187,35.1079734 C25.0001648,34.760693 25.2807008,34.4952639 25.6318274,34.4356012 C26.1098976,34.3543685 26.5635862,34.6751976 26.6463051,35.1529964 Z M33.6863049,34.2729964 C33.7470592,34.6239236 33.5902777,34.9768667 33.2891537,35.1670547 C32.9880298,35.3572428 32.6019513,35.3471667 32.3111585,35.1415305 C32.0203657,34.9358943 31.882209,34.5752538 31.9611868,34.2279734 C32.0401645,33.8806931 32.3207006,33.615264 32.6718271,33.5556012 C33.1498973,33.4743685 33.6035859,33.7951976 33.6863049,34.2729964 Z M6.4063059,33.3929964 C6.46706019,33.7439236 6.31027875,34.0968667 6.00915478,34.2870548 C5.70803081,34.4772428 5.32195233,34.4671668 5.03115951,34.2615306 C4.74036669,34.0558943 4.60221004,33.6952538 4.6811878,33.3479735 C4.76016555,33.0006931 5.04070161,32.735264 5.39182813,32.6756013 C5.86989836,32.5943686 6.32358695,32.9151977 6.4063059,33.3929964 Z M39.8463046,33.3929964 C39.9070589,33.7439236 39.7502775,34.0968667 39.4491535,34.2870548 C39.1480295,34.4772428 38.7619511,34.4671668 38.4711582,34.2615306 C38.1803654,34.0558943 38.0422088,33.6952538 38.1211865,33.3479735 C38.2001643,33.0006931 38.4807003,32.735264 38.8318269,32.6756013 C39.3098971,32.5943686 39.7635857,32.9151977 39.8463046,33.3929964 Z M12.566363,32.5133685 C12.6486509,32.9920254 12.3279167,33.4469227 11.8496158,33.5299311 C11.3713149,33.6129396 10.9161895,33.2926918 10.8325433,32.8142706 C10.7488971,32.3358494 11.0683388,31.8800427 11.5464021,31.7956756 C12.0256572,31.7142273 12.4809266,32.0345765 12.566363,32.5133685 Z M19.6063627,30.7533686 C19.6886506,31.2320255 19.3679165,31.6869227 18.8896155,31.7699312 C18.4113146,31.8529397 17.9561892,31.5326918 17.872543,31.0542707 C17.7888969,30.5758495 18.1083385,30.1200428 18.5864019,30.0356756 C19.0656569,29.9542274 19.5209264,30.2745766 19.6063627,30.7533686 Z M25.7663625,29.8733686 C25.8486504,30.3520255 25.5279162,30.8069228 25.0496153,30.8899312 C24.5713144,30.9729397 24.116189,30.6526919 24.0325428,30.1742707 C23.9488966,29.6958495 24.2683383,29.2400428 24.7464016,29.1556757 C25.2256567,29.0742274 25.6809261,29.3945766 25.7663625,29.8733686 Z M32.4453945,28.42321 C32.6367994,28.5578351 32.7666964,28.7631664 32.8063622,28.9938002 C32.8886501,29.4722565 32.567916,29.9269631 32.089615,30.0099368 C31.6113141,30.0929105 31.1561887,29.7727968 31.0725425,29.2945762 C30.9888964,28.8163556 31.308338,28.3607399 31.7864014,28.2764081 C32.0168458,28.2357571 32.2539896,28.2885849 32.4453945,28.42321 Z M5.52636327,28.1133687 C5.60865112,28.5920256 5.28791699,29.0469228 4.80961607,29.1299313 C4.33131515,29.2129398 3.87618974,28.8926919 3.79254357,28.4142708 C3.7088974,27.9358496 4.02833903,27.4800429 4.50640241,27.3956757 C4.98565748,27.3142275 5.44092692,27.6345767 5.52636327,28.1133687 Z M38.6053942,27.54321 C38.7967991,27.6778351 38.9266962,27.8831665 38.966362,28.1138003 C39.0486499,28.5922565 38.7279157,29.0469631 38.2496148,29.1299368 C37.7713139,29.2129105 37.3161885,28.8927969 37.2325423,28.4145762 C37.1488961,27.9363556 37.4683378,27.4807399 37.9464011,27.3964082 C38.1768456,27.3557571 38.4139893,27.4085849 38.6053942,27.54321 Z M11.6863057,27.2325006 C11.74706,27.5835967 11.5902786,27.9367098 11.2891546,28.1269895 C10.9880306,28.3172692 10.6019521,28.3071883 10.3111593,28.101453 C10.0203665,27.8957178 9.88220984,27.5349035 9.96118759,27.1874559 C10.0401653,26.8400083 10.3207014,26.5744513 10.6718279,26.5147599 C11.1491627,26.4367002 11.6008046,26.7562358 11.6863057,27.2325006 Z M18.7263054,26.3529967 C18.7870597,26.7039239 18.6302783,27.056867 18.3291543,27.247055 C18.0280303,27.4372431 17.6419519,27.427167 17.351159,27.2215308 C17.0603662,27.0158946 16.9222096,26.6552541 17.0011873,26.3079737 C17.0801651,25.9606934 17.3607011,25.6952643 17.7118277,25.6356015 C18.1898979,25.5543688 18.6435865,25.8751979 18.7263054,26.3529967 Z M24.8863052,24.5929968 C24.9470595,24.9439239 24.7902781,25.296867 24.4891541,25.4870551 C24.1880301,25.6772432 23.8019516,25.6671671 23.5111588,25.4615309 C23.220366,25.2558947 23.0822093,24.8952542 23.1611871,24.5479738 C23.2401648,24.2006934 23.5207009,23.9352643 23.8718274,23.8756016 C24.3498977,23.7943689 24.8035862,24.115198 24.8863052,24.5929968 Z M31.9263049,23.7129968 C31.9870592,24.063924 31.8302778,24.4168671 31.5291538,24.6070551 C31.2280298,24.7972432 30.8419514,24.7871671 30.5511585,24.5815309 C30.2603657,24.3758947 30.1222091,24.0152542 30.2011868,23.6679738 C30.2801646,23.3206935 30.5607006,23.0552644 30.9118272,22.9956016 C31.3898974,22.9143689 31.843586,23.235198 31.9263049,23.7129968 Z M4.28867185,22.2634307 C4.4792079,22.3981128 4.60797293,22.6033396 4.64630596,22.8334309 C4.70706025,23.1842102 4.55027882,23.5370045 4.24915485,23.7271125 C3.94803088,23.9172204 3.5619524,23.9071486 3.27115958,23.701599 C2.98036676,23.4960495 2.84221011,23.1355609 2.92118786,22.7884269 C3.00016561,22.4412929 3.28070168,22.1759756 3.6318282,22.1163381 C3.86164133,22.0757883 4.0981358,22.1287485 4.28867185,22.2634307 Z M38.0863047,22.8329968 C38.147059,23.183924 37.9902776,23.5368671 37.6891536,23.7270552 C37.3880296,23.9172432 37.0019511,23.9071672 36.7111583,23.701531 C36.4203655,23.4958948 36.2822088,23.1352542 36.3611866,22.7879739 C36.4401643,22.4406935 36.7207004,22.1752644 37.0718269,22.1156017 C37.5498972,22.034369 38.0035857,22.3551981 38.0863047,22.8329968 Z M10.4486716,21.3834307 C10.6392077,21.5181129 10.7679727,21.7233396 10.8063057,21.9534309 C10.86706,22.3042102 10.7102786,22.6570046 10.4091546,22.8471125 C10.1080306,23.0372204 9.72195216,23.0271486 9.43115935,22.821599 C9.14036653,22.6160495 9.00220988,22.2555609 9.08118763,21.9084269 C9.16016538,21.5612929 9.44070144,21.2959757 9.79182797,21.2363381 C10.0216411,21.1957883 10.2581356,21.2487486 10.4486716,21.3834307 Z M17.8463628,21.073369 C17.9286507,21.5520258 17.6079165,22.0069231 17.1296156,22.0899316 C16.6513147,22.1729401 16.1961893,21.8526922 16.1125431,21.374271 C16.0288969,20.8958499 16.3483386,20.4400432 16.8264019,20.355676 C17.305657,20.2742277 17.7609264,20.5945769 17.8463628,21.073369 Z M23.6453948,18.7432103 C23.8367997,18.8778355 23.9666967,19.0831668 24.0063626,19.3138006 C24.0886504,19.7922569 23.7679163,20.2469634 23.2896154,20.3299371 C22.8113144,20.4129108 22.356189,20.0927972 22.2725429,19.6145766 C22.1888967,19.1363559 22.5083383,18.6807403 22.9864017,18.5964085 C23.2168461,18.5557574 23.4539899,18.6085852 23.6453948,18.7432103 Z M30.6853945,17.8632104 C30.8767994,17.9978355 31.0066965,18.2031668 31.0463623,18.4338006 C31.1286502,18.9122569 30.807916,19.3669635 30.3296151,19.4499372 C29.8513142,19.5329109 29.3961888,19.2127972 29.3125426,18.7345766 C29.2288964,18.256356 29.5483381,17.8007403 30.0264014,17.7164085 C30.2568459,17.6757575 30.4939896,17.7285853 30.6853945,17.8632104 Z M3.76636334,17.5533691 C3.84865119,18.032026 3.52791706,18.4869232 3.04961614,18.5699317 C2.57131522,18.6529402 2.11618981,18.3326923 2.03254364,17.8542712 C1.94889747,17.37585 2.2683391,16.9200433 2.74640247,16.8356761 C3.22565755,16.7542279 3.68092698,17.0745771 3.76636334,17.5533691 Z M36.8453943,16.9832104 C37.0367992,17.1178355 37.1666962,17.3231669 37.2063621,17.5538007 C37.2886499,18.0322569 36.9679158,18.4869635 36.4896149,18.5699372 C36.0113139,18.6529109 35.5561885,18.3327973 35.4725424,17.8545766 C35.3888962,17.376356 35.7083378,16.9207403 36.1864012,16.8364086 C36.4168456,16.7957575 36.6539894,16.8485853 36.8453943,16.9832104 Z M9.9263631,16.6733691 C10.008651,17.152026 9.68791683,17.6069233 9.20961591,17.6899317 C8.73131498,17.7729402 8.27618958,17.4526924 8.19254341,16.9742712 C8.10889724,16.49585 8.42833886,16.0400433 8.90640224,15.9556762 C9.38565731,15.8742279 9.84092675,16.1945771 9.9263631,16.6733691 Z M16.9663055,15.7929971 C17.0270598,16.1439243 16.8702784,16.4968674 16.5691544,16.6870554 C16.2680304,16.8772435 15.8819519,16.8671674 15.5911591,16.6615312 C15.3003663,16.455895 15.1622096,16.0952545 15.2411874,15.7479741 C15.3201651,15.4006938 15.6007012,15.1352647 15.9518277,15.0756019 C16.429898,14.9943692 16.8835865,15.3151983 16.9663055,15.7929971 Z M23.1263053,14.0329972 C23.1870596,14.3839243 23.0302781,14.7368674 22.7291541,14.9270555 C22.4280302,15.1172436 22.0419517,15.1071675 21.7511589,14.9015313 C21.4603661,14.6958951 21.3222094,14.3352546 21.4011872,13.9879742 C21.4801649,13.6406938 21.760701,13.3752647 22.1118275,13.315602 C22.5898977,13.2343693 23.0435863,13.5551984 23.1263053,14.0329972 Z M28.9286709,12.583431 C29.119207,12.7181132 29.247972,12.92334 29.286305,13.1534313 C29.3470593,13.5042105 29.1902779,13.8570049 28.8891539,14.0471128 C28.5880299,14.2372208 28.2019515,14.2271489 27.9111586,14.0215994 C27.6203658,13.8160498 27.4822092,13.4555613 27.5611869,13.1084273 C27.6401647,12.7612933 27.9207007,12.495976 28.2718273,12.4363384 C28.5016404,12.3957887 28.7381349,12.4487489 28.9286709,12.583431 Z M2.52867192,11.7034311 C2.71920797,11.8381132 2.847973,12.04334 2.88630603,12.2734313 C2.94706032,12.6242106 2.79027889,12.9770049 2.48915492,13.1671129 C2.18803095,13.3572208 1.80195246,13.347149 1.51115965,13.1415994 C1.22036683,12.9360499 1.08221018,12.5755613 1.16118793,12.2284273 C1.24016568,11.8812933 1.52070174,11.615976 1.87182827,11.5563385 C2.10164139,11.5157887 2.33813586,11.5687489 2.52867192,11.7034311 Z M35.9686706,11.7034311 C36.1592067,11.8381132 36.2879717,12.04334 36.3263048,12.2734313 C36.3870591,12.6242106 36.2302776,12.9770049 35.9291536,13.1671129 C35.6280297,13.3572208 35.2419512,13.347149 34.9511584,13.1415994 C34.6603656,12.9360499 34.5222089,12.5755613 34.6011867,12.2284273 C34.6801644,11.8812933 34.9607005,11.615976 35.311827,11.5563385 C35.5416401,11.5157887 35.7781346,11.5687489 35.9686706,11.7034311 Z M8.68867168,10.8234311 C8.87920774,10.9581133 9.00797276,11.16334 9.0463058,11.3934313 C9.10706009,11.7442106 8.95027865,12.097005 8.64915468,12.2871129 C8.34803071,12.4772208 7.96195223,12.467149 7.67115941,12.2615994 C7.38036659,12.0560499 7.24220994,11.6955613 7.32118769,11.3484273 C7.40016545,11.0012933 7.68070151,10.7359761 8.03182803,10.6763385 C8.26164116,10.6357887 8.49813563,10.688749 8.68867168,10.8234311 Z M15.7253951,9.94321068 C15.9168,10.0778358 16.046697,10.2831672 16.0863629,10.5138009 C16.1686507,10.9922572 15.8479166,11.4469638 15.3696157,11.5299375 C14.8913148,11.6129112 14.4361893,11.2927975 14.3525432,10.8145769 C14.268897,10.3363563 14.5883386,9.88074062 15.066402,9.79640884 C15.2968464,9.75575777 15.5339902,9.80858556 15.7253951,9.94321068 Z M22.2463626,8.75287628 C22.3286505,9.23176242 22.0079164,9.68687753 21.5296154,9.76992577 C21.0513145,9.85297401 20.5961891,9.53257276 20.5125429,9.05392247 C20.4288968,8.57527217 20.7483384,8.11924716 21.2264018,8.03483962 C21.7049325,7.95653638 22.1581776,8.27561391 22.2463626,8.75287628 Z M28.4063624,7.87336945 C28.4886503,8.35202635 28.1679161,8.8069236 27.6896152,8.88993208 C27.2113143,8.97294056 26.7561889,8.65269269 26.6725427,8.17427153 C26.5888965,7.69585037 26.9083382,7.24004365 27.3864015,7.15567651 C27.8656566,7.07422822 28.320926,7.39457743 28.4063624,7.87336945 Z M1.65186812,6.42993336 C1.84336173,6.5678447 1.97192814,6.77652024 2.00903891,7.00965561 C2.08203582,7.48803438 1.75545688,7.93567985 1.27784661,8.01190921 C0.800236342,8.08813857 0.35067449,7.76436966 0.27130234,7.28700841 C0.191930191,6.80964717 0.512508294,6.35767996 0.989059089,6.27507869 C1.22179124,6.23628088 1.46037452,6.29202203 1.65186812,6.42993336 Z M35.4463621,6.99336949 C35.52865,7.47202638 35.2079159,7.92692363 34.7296149,8.00993211 C34.251314,8.09294059 33.7961886,7.77269272 33.7125424,7.29427156 C33.6288963,6.8158504 33.9483379,6.36004369 34.4264013,6.27567655 C34.9056563,6.19422825 35.3609258,6.51457746 35.4463621,6.99336949 Z M8.16770507,6.12086252 C8.22524242,6.47340851 8.06411806,6.82578656 7.75987796,7.01277805 C7.45563786,7.19976954 7.06860693,7.18429769 6.78025137,6.97361675 C6.49189582,6.76293582 6.35939096,6.39881973 6.444864,6.05199068 C6.53033705,5.70516163 6.81684036,5.44438909 7.17004186,5.39194082 C7.64507077,5.32441971 8.08744821,5.6476335 8.16770507,6.12086252 Z M14.8506557,4.66693378 C15.0423723,4.80388424 15.1711602,5.01200735 15.2081805,5.24469893 C15.2842715,5.72296973 14.9596183,6.17283177 14.4817618,6.25127525 C14.0039052,6.32971872 13.5524878,6.00725409 13.4717052,5.52975346 C13.3909225,5.05225283 13.7111436,4.59922478 14.188207,4.51609313 C14.4203112,4.47564735 14.658939,4.52998331 14.8506557,4.66693378 Z M21.0112659,3.78527726 C21.2019361,3.92111185 21.3301294,4.1277194 21.3671306,4.35882004 C21.4469738,4.83770286 21.1235186,5.29067706 20.6444897,5.37082327 C20.1654607,5.45096948 19.7120678,5.12796956 19.6315508,4.64919946 C19.5510339,4.17042936 19.8738514,3.71700089 20.3527671,3.63618133 C20.5833845,3.59573378 20.8205958,3.64944267 21.0112659,3.78527726 Z M27.168671,2.02343145 C27.359207,2.15811359 27.4879721,2.36334037 27.5263051,2.59343167 C27.5870594,2.94421094 27.430278,3.2970053 27.129154,3.48711323 C26.82803,3.67722115 26.4419515,3.66714933 26.1511587,3.46159978 C25.8603659,3.25605023 25.7222092,2.89556168 25.801187,2.54842767 C25.8801647,2.20129367 26.1607008,1.93597639 26.5118273,1.87633883 C26.7416405,1.83578908 26.9781349,1.88874931 27.168671,2.02343145 Z M34.2059944,1.14157296 C34.3963766,1.27509513 34.525694,1.47893006 34.565344,1.70799296 C34.6283737,2.05879167 34.4733771,2.41293325 34.1728562,2.60476238 C33.8723353,2.7965915 33.4857038,2.7881831 33.1938147,2.58347034 C32.9019256,2.37875758 32.762486,2.01821265 32.8407211,1.67048614 C32.9189561,1.32275964 33.1993986,1.0565979 33.550867,0.996502292 C33.7798545,0.955844893 34.0156122,1.0080508 34.2059944,1.14157296 Z" id="Combined-Shape" fill="url(#linearGradient-9)" fill-rule="nonzero" opacity="0.521809896"></path>
                            <g id="Group-6" stroke-width="1" fill="none" fill-rule="evenodd" transform="translate(36.504594, 198.839078) rotate(45.000000) translate(-36.504594, -198.839078) translate(26.504594, 168.839078)">
                                <path d="M17.7785299,42.3030441 C17.7785299,42.3030441 -6.34684376,8.18087143 1.60976346,1.17959211 C9.56707469,-5.82239121 20.4150096,19.6884543 17.7785299,42.3030441" id="Fill-161" fill="url(#linearGradient-10)" fill-rule="nonzero"></path>
                                <path d="M3.86185924,5.21562371 C16.500066,24.7481018 18.7570898,46.6256037 19.0626258,59.0624665 C19.0654418,59.1596185 19.1456978,59.2363544 19.2428497,59.234285 C19.3400017,59.2321304 19.4167377,59.1511705 19.4146683,59.0540185 C19.1069778,46.5854757 16.84925,24.6439098 4.15753921,5.02413573 C4.10473922,4.94247174 3.99561923,4.91923974 3.91395524,4.97203974 C3.83229124,5.02483973 3.80905925,5.13395972 3.86185924,5.21562371" id="Fill-162" fill="#FFFFFF"></path>
                                <path d="M16.67677,25.9104057 C16.59933,29.0636214 16.408546,31.9197491 16.181154,34.3921969 C16.172706,34.4893489 16.24381,34.5745329 16.340258,34.5836849 C16.43741,34.5928368 16.523298,34.5217329 16.531746,34.4245809 C16.759842,31.9450931 16.950626,29.0812214 17.02877,25.9195577 C17.031586,25.8224057 16.954146,25.7414457 16.856994,25.7385871 C16.759842,25.7365177 16.679586,25.8132537 16.67677,25.9104057" id="Fill-163" fill="#FFFFFF"></path>
                                <path d="M13.0568023,14.3190468 C12.9793624,17.4722625 12.7885784,20.3283902 12.5611864,22.800838 C12.5520344,22.897286 12.6238424,22.983174 12.7202904,22.992326 C12.8174424,23.000774 12.9026264,22.92967 12.9117784,22.833222 C13.1398743,20.3537342 13.3306583,17.4898625 13.4088023,14.3274948 C13.4109143,14.2303428 13.3341783,14.1500868 13.2370263,14.1472283 C13.1398743,14.1451588 13.0596183,14.2218948 13.0568023,14.3190468" id="Fill-164" fill="#FFFFFF"></path>
                                <path d="M7.60784288,3.85338385 C7.74089886,4.98541574 7.80073886,6.25543161 7.80073886,7.54375149 C7.80073886,8.91232735 7.73385886,10.3013192 7.61699488,11.5706311 C7.60854688,11.6677831 7.67965087,11.7536711 7.77609886,11.7621191 C7.87325085,11.7712711 7.95913884,11.7001671 7.96758684,11.6030151 C8.08515483,10.3224392 8.15273882,8.92359135 8.15273882,7.54375149 C8.15273882,6.24416761 8.09289883,4.96218374 7.95702684,3.81184785 C7.94576284,3.71539986 7.85846685,3.64640787 7.76201886,3.65767187 C7.66557087,3.66893587 7.59657888,3.75693586 7.60784288,3.85338385" id="Fill-165" fill="#FFFFFF"></path>
                                <path d="M3.09731532,9.80992727 C5.10441912,11.0320711 7.3783389,12.863175 9.17917072,14.5619268 C9.24957072,14.6281028 9.36080271,14.6252868 9.4276827,14.5541828 C9.49456269,14.4837828 9.49104269,14.3725508 9.4206427,14.3056708 C7.60361888,12.592135 5.3191391,10.7511752 3.2803553,9.5093193 C3.19728331,9.4586313 3.08957132,9.4853833 3.03888332,9.56845529 C2.98819533,9.65152728 3.01424332,9.75923927 3.09731532,9.80992727" id="Fill-166" fill="#FFFFFF"></path>
                                <path d="M7.86832285,22.0672701 C9.87542666,23.289414 12.1486424,25.1205178 13.9494743,26.8192696 C14.0205783,26.8861496 14.1318102,26.8826296 14.1986902,26.8122296 C14.2648662,26.7411256 14.2620502,26.6298936 14.1909462,26.5630136 C12.3739224,24.8501818 10.0901466,23.008518 8.05136283,21.7666621 C7.96829084,21.7159741 7.85987485,21.7427261 7.80918686,21.8257981 C7.75920286,21.9088701 7.78525086,22.0172861 7.86832285,22.0672701" id="Fill-168" fill="#FFFFFF"></path>
                            </g>
                        </g>
                    </g>
                    <g id="Group-71-Copy" opacity="0.92313058" mask="url(#mask-2)">
                        <g transform="translate(685.000000, 147.507081) scale(-1, 1) rotate(6.000000) translate(-685.000000, -147.507081) translate(660.000000, 75.007081)" id="Path">
                            <path d="M11.8361311,114.072752 C11.8361311,114.072752 6.35376334,89.5649137 10.8645723,71.1960457 C15.3753812,52.8271776 5.71317509,55.715163 10.0958664,43.1970009 C14.4785576,30.6788389 4.04230741,34.8800302 8.92679281,22.2711181 C13.8112782,9.66220609 3.83945447,9.79566198 7.59223396,7.10542736e-14 C11.1208076,7.42548546 20.1370872,12.3740297 17.8629989,20.9685887 C15.5889106,29.5631477 26.505602,35.4138537 21.7225431,45.1241039 C16.9394842,54.8343541 34.8332493,74.1907957 30.1356021,92.8105608 C25.4379549,111.430326 13.9287194,127.749312 11.8361311,114.072752 Z" stroke="none" fill="url(#linearGradient-11)" fill-rule="nonzero"></path>
                            <path d="M3.79674858,134.512856 C3.79674858,134.512856 34.3848375,83.9651048 32.1481168,61.0160307 C29.9113962,38.0669567 48.9208525,37.4103538 49.817676,58.3148836 C50.7144996,79.2194135 20.4573813,139.610871 6.94630747,143.860106 C-6.56476635,148.109341 3.79674858,134.512856 3.79674858,134.512856 Z" stroke="none" fill="url(#linearGradient-12)" fill-rule="nonzero"></path>
                            <path d="M39.97397,43.1970009 C39.97397,43.1970009 49.636176,78.6268694 2.64368973,144.682194" stroke="#FFFFFF" stroke-width="0.550000012" fill="none"></path>
                            <path d="M32.265558,64.0428102 C32.265558,64.0428102 38.2337052,67.4859721 38.3244552,72.0127957 C41.7173744,68.5787162 45.5013389,65.5544112 49.5988084,63.0018543" stroke="#FFFFFF" stroke-width="0.550000012" fill="none"></path>
                            <path d="M29.2174256,80.3991635 C29.2174256,80.3991635 33.4132786,84.990046 33.2798228,88.8122225 C33.2798228,88.8122225 39.8885582,82.8013694 44.4047053,82.7426489" stroke="#FFFFFF" stroke-width="0.550000012" fill="none"></path>
                            <path d="M22.6567343,97.9566198 C22.6567343,97.9566198 26.2440285,102.141796 25.7956167,106.337649 C31.9452639,103.599135 35.4578228,103.956796 35.4578228,103.956796" stroke="#FFFFFF" stroke-width="0.550000012" fill="none"></path>
                            <path d="M16.4216753,111.280855 C18.204069,113.749436 18.989488,116.799607 18.6210283,119.822032 C23.761749,116.672473 28.1764697,117.825532 28.1764697,117.825532" stroke="#FFFFFF" stroke-width="0.550000012" fill="none"></path>
                            <path d="M10.5549546,122.571223 C10.5549546,122.571223 12.2204841,127.17812 11.8361311,131.043003 C16.8273812,129.195973 20.3399401,130.3864 20.3399401,130.3864" stroke="#FFFFFF" stroke-width="0.550000012" fill="none"></path>
                            <path d="M13.2561017,130.765415 C13.2561017,130.765415 14.0728517,89.2125902 24.0286608,76.4061634 C33.9844698,63.5997367 22.9289843,56.0674865 14.5372782,68.1585897 C6.14557216,80.2496929 1.447925,127.54112 7.8698222,135.137429 C14.2917194,142.733738 13.2561017,130.765415 13.2561017,130.765415 Z" stroke="none" fill="url(#linearGradient-13)" fill-rule="nonzero"></path>
                            <path d="M26.0732049,62.8683984 C26.0732049,62.8683984 7.00502806,80.3030753 10.1172193,137.246032" stroke="#FFFFFF" stroke-width="0.550000012" fill="none"></path>
                            <path d="M22.8222196,78.1677811 C22.8222196,78.1677811 17.9804401,77.9702664 16.2241606,80.6287076 C15.4987627,77.3071346 14.3861415,74.0821455 12.9091164,71.0198839" stroke="#FFFFFF" stroke-width="0.550000012" fill="none"></path>
                            <path d="M18.4822342,89.0364284 C18.4822342,89.0364284 14.2650282,90.1894872 12.9037782,92.5116197 C12.9037782,92.5116197 11.2382487,86.4527225 8.57446927,84.717796" stroke="#FFFFFF" stroke-width="0.550000012" fill="none"></path>
                            <path d="M15.7971018,101.94962 C15.7971018,101.94962 12.0923664,103.092002 10.7791605,105.750443 C8.15274868,101.810826 5.93204275,100.705811 5.93204275,100.705811" stroke="#FFFFFF" stroke-width="0.550000012" fill="none"></path>
                            <path d="M14.4838959,112.20437 C12.4912694,113.005457 10.8758275,114.531258 9.96241048,116.474958 C8.08868985,112.674135 5.02988096,111.697238 5.02988096,111.697238" stroke="#FFFFFF" stroke-width="0.550000012" fill="none"></path>
                            <path d="M13.7205282,121.1299 C13.7205282,121.1299 11.0033664,123.265194 9.77557224,125.683414 C7.50148396,122.715356 4.97116037,122.09612 4.97116037,122.09612" stroke="#FFFFFF" stroke-width="0.550000012" fill="none"></path>
                        </g>
                    </g>
                </g>
            </g>
        </g>
    </g>
</svg>