<?xml version="1.0" encoding="UTF-8"?>
<svg width="222px" height="199px" viewBox="0 0 222 199" version="1.1" xmlns="http://www.w3.org/2000/svg" xmlns:xlink="http://www.w3.org/1999/xlink">
    <!-- Generator: Sketch 59.1 (86144) - https://sketch.com -->
    <title>Group</title>
    <desc>Created with Sketch.</desc>
    <g id="Page-1" stroke="none" stroke-width="1" fill="none" fill-rule="evenodd">
        <g id="Desktop-HD-Copy-2" transform="translate(-768.000000, -203.000000)">
            <g id="Group-15-Copy" transform="translate(286.000000, 169.000000)">
                <g id="Group" transform="translate(482.000000, 34.000000)">
                    <g id="Group-9">
                        <path d="M1.8231831,50.3222249 C2.21048723,50.3146906 2.53426541,50.6150826 2.55573425,51.0018646 L3.08402232,60.5194918 C3.1045193,60.8887649 2.82178033,61.2047361 2.45250716,61.2252331 C2.44448371,61.2256784 2.4364529,61.2259793 2.42841861,61.2261356 C2.04111448,61.2336699 1.7173363,60.9332779 1.69586747,60.5464958 L1.1675794,51.0288687 C1.14708242,50.6595955 1.42982139,50.3436244 1.79909455,50.3231274 C1.807118,50.3226821 1.81514882,50.3223812 1.8231831,50.3222249 Z" id="Fill-93" fill="#5C5B59" transform="translate(2.125801, 55.774180) rotate(1.000000) translate(-2.125801, -55.774180) "></path>
                        <path d="M1.56644003,40.9368209 C1.98457016,40.9292747 2.33426965,41.2527897 2.35922319,41.6702428 L2.57965544,45.3579007 C2.60330736,45.7535787 2.30172065,46.0935127 1.90604268,46.1171646 C1.89609361,46.1177593 1.88613324,46.1181467 1.87616803,46.1183266 C1.45803791,46.1258728 1.10833841,45.8023578 1.08338487,45.3849047 L0.862952625,41.6972468 C0.839300706,41.3015689 1.14088741,40.9616348 1.53656539,40.9379829 C1.54651445,40.9373882 1.55647483,40.9370008 1.56644003,40.9368209 Z" id="Fill-94" fill="#5C5B59" transform="translate(1.721304, 43.527574) rotate(1.000000) translate(-1.721304, -43.527574) "></path>
                        <path d="M12.0698421,119.416848 L168.253122,119.416848 C171.785744,119.416848 174.581891,116.526596 174.46651,112.993974 L170.988715,6.42287394 C170.874152,2.89025236 167.888977,0 164.356355,0 L8.17307488,0 C4.6404533,0 1.84430598,2.89025236 1.95968695,6.42287394 L5.43748212,112.993974 C5.55204478,116.526596 8.53722049,119.416848 12.0698421,119.416848" id="Fill-95" fill="#3769A4"></path>
                        <path d="M168.753925,119.416848 C172.286546,119.416848 175.082694,116.526596 174.967313,112.993974 L171.490336,6.42287394 C171.374137,2.89025236 168.390598,0 164.857976,0 L8.67387739,0 C5.1412558,0 2.34510849,2.89025236 2.46048946,6.42287394 L5.93828462,112.993974 C6.05366559,116.526596 9.038023,119.416848 12.5706446,119.416848 L168.753925,119.416848 Z" id="Fill-96" fill="#433DFF"></path>
                        <path d="M168.753925,119.416848 L12.5706446,119.416848 C9.038023,119.416848 6.05366559,116.526596 5.93828462,112.993974 L2.46048946,6.42287394 C2.4572146,6.35331804 2.4572146,6.28458044 2.4572146,6.21666115 C2.45476132,2.77814461 5.2099934,0 8.67387739,0 L164.857976,0 C168.390598,0 171.374137,2.89025236 171.490336,6.42287394 L172.232538,29.1905669 L164.720501,27.8673681 L164.425093,18.8103712 C164.382541,17.5248144 163.30647,16.4822942 162.020913,16.4822942 L12.5870107,16.4822942 C11.3006356,16.4822942 10.2916659,17.5248144 10.3342177,18.8103712 L13.1933745,106.451628 C13.235108,107.738003 14.3119971,108.780523 15.5983721,108.780523 L165.032275,108.780523 C166.317832,108.780523 167.326801,107.738003 167.28425,106.451628 L167.025665,98.5197998 L174.538521,99.8429986 L174.967313,112.993974 C174.970595,113.062712 174.970595,113.131449 174.970595,113.200187 C174.970595,113.69117 174.914941,114.168241 174.80938,114.625674 C174.171921,117.374359 171.723553,119.416848 168.753925,119.416848 M8.27781789,3.21102782 C8.10106406,3.21102782 7.92594685,3.21839256 7.75328455,3.23312205 C3.74850113,3.56126225 4.32458767,9.63390176 8.35392023,9.63390176 L164.803968,9.63390176 C168.834119,9.63390176 169.013327,3.56126225 164.98645,3.23312205 C164.812969,3.21839256 164.637852,3.21102782 164.461098,3.21102782 L8.27781789,3.21102782" id="Fill-97" fill="#433DFF"></path>
                        <path d="M164.803968,9.63390176 L8.35392023,9.63390176 C4.32458767,9.63390176 3.74850113,3.56126225 7.75328455,3.23312205 C7.92594685,3.21839256 8.10106406,3.21102782 8.27781789,3.21102782 L164.461098,3.21102782 C164.637852,3.21102782 164.812969,3.21839256 164.98645,3.23312205 C169.013327,3.56126225 168.834119,9.63390176 164.803968,9.63390176" id="Fill-98" fill="#D8D7FF"></path>
                        <path d="M12.2187735,6.42287394 C12.2457776,7.23626886 11.6074999,7.89500418 10.7949233,7.89500418 C9.98152837,7.89500418 9.30069882,7.23626886 9.27369476,6.42287394 C9.24750901,5.60947903 9.88496841,4.9499254 10.6983633,4.9499254 C11.5117582,4.9499254 12.1925878,5.60947903 12.2187735,6.42287394" id="Fill-99" fill="#37A466"></path>
                        <path d="M17.2276169,6.42287394 C17.2546209,7.23626886 16.6163432,7.89500418 15.8029483,7.89500418 C14.9903717,7.89500418 14.3095422,7.23626886 14.2825381,6.42287394 C14.2563524,5.60947903 14.8938118,4.9499254 15.7072067,4.9499254 C16.5206016,4.9499254 17.2014311,5.60947903 17.2276169,6.42287394" id="Fill-100" fill="#FF3344"></path>
                        <path d="M22.2364602,6.42287394 C22.262646,7.23626886 21.6251866,7.89500418 20.8117917,7.89500418 C19.9983968,7.89500418 19.3183855,7.23626886 19.2913815,6.42287394 C19.2651957,5.60947903 19.9026551,4.9499254 20.71605,4.9499254 C21.5286266,4.9499254 22.2094562,5.60947903 22.2364602,6.42287394" id="Fill-101" fill="#1A73FF"></path>
                        <path d="M15.5983721,108.780523 L165.032275,108.780523 C166.317832,108.780523 167.326801,107.738003 167.285547,106.451628 L164.425093,18.8103712 C164.382541,17.5248144 163.30647,16.4822942 162.020913,16.4822942 L12.5870107,16.4822942 C11.3006356,16.4822942 10.2916659,17.5248144 10.3329198,18.8103712 L13.1933745,106.451628 C13.235108,107.738003 14.3119971,108.780523 15.5983721,108.780523" id="Fill-102" fill="#FFFEFE"></path>
                        <path d="M125.175924,95.2073022 L125.263483,97.9347119 L122.536073,97.9347119 L122.536073,97.1581407 L124.463181,97.1581407 L124.400989,95.2326696 L125.175924,95.2073022 Z M118.190875,97.1581407 L118.190875,97.9347119 L113.845676,97.9347119 L113.845676,97.1581407 L118.190875,97.1581407 Z M109.501297,97.1581407 L109.501297,97.9347119 L105.15528,97.9347119 L105.15528,97.1581407 L109.501297,97.1581407 Z M100.8109,97.1581407 L100.8109,97.9347119 L96.465702,97.9347119 L96.465702,97.1581407 L100.8109,97.1581407 Z M92.1205038,97.1581407 L92.1205038,97.9347119 L87.7761239,97.9347119 L87.7761239,97.1581407 L92.1205038,97.1581407 Z M83.4309257,97.1581407 L83.4309257,97.9347119 L79.0857275,97.9347119 L79.0857275,97.1581407 L83.4309257,97.1581407 Z M74.7405293,97.1581407 L74.7405293,97.9347119 L70.3961494,97.9347119 L70.3961494,97.1581407 L74.7405293,97.1581407 Z M66.0509512,97.1581407 L66.0509512,97.9347119 L61.705753,97.9347119 L61.705753,97.1581407 L66.0509512,97.1581407 Z M55.3450702,95.2073022 L55.408898,97.1581407 L57.3613731,97.1581407 L57.3613731,97.9347119 L54.6576942,97.9347119 L54.5701356,95.2326696 L55.3450702,95.2073022 Z M55.0619368,86.5169058 L55.2035035,90.862104 L54.4285689,90.8874714 L54.2870022,86.5422732 L55.0619368,86.5169058 Z M124.891972,86.5169058 L125.033539,90.862104 L124.258604,90.8874714 L124.117038,86.5422732 L124.891972,86.5169058 Z M54.7788033,77.8265094 L54.9195517,82.1717076 L54.1446172,82.197075 L54.0030504,77.8518768 L54.7788033,77.8265094 Z M124.608839,77.8273277 L124.749587,82.1717076 L123.974653,82.197075 L123.833086,77.8518768 L124.608839,77.8273277 Z M124.324887,69.136113 L124.467272,73.4813112 L123.691519,73.5074969 L123.549952,69.1622987 L124.324887,69.136113 Z M54.4948516,69.136113 L54.6364183,73.4813112 L53.8614837,73.5066786 L53.719917,69.1614804 L54.4948516,69.136113 Z M54.2108998,60.4457166 L54.3532849,64.7909148 L53.5783503,64.8171006 L53.4359652,60.4719024 L54.2108998,60.4457166 Z M124.040935,60.4457166 L124.18332,64.7909148 L123.408386,64.8171006 L123.266001,60.4719024 L124.040935,60.4457166 Z M53.9277664,51.7553202 L54.0693331,56.1005184 L53.2943985,56.1258859 L53.1520135,51.781506 L53.9277664,51.7553202 Z M123.75862,51.7561385 L123.899369,56.1013367 L123.124434,56.1258859 L122.982867,51.781506 L123.75862,51.7561385 Z M123.474668,43.0657421 L123.616235,47.4109403 L122.840482,47.4363078 L122.699734,43.0911096 L123.474668,43.0657421 Z M53.644633,43.0657421 L53.7861997,47.4109403 L53.0104468,47.4354895 L52.8696984,43.0911096 L53.644633,43.0657421 Z M123.190717,34.3753457 L123.332283,38.7205439 L122.557349,38.7459114 L122.415782,34.4007132 L123.190717,34.3753457 Z M53.3606812,34.3753457 L53.5022479,38.7205439 L52.7273133,38.7459114 L52.5857466,34.4007132 L53.3606812,34.3753457 Z M122.960773,27.3281053 L123.048332,30.0301475 L122.273397,30.055515 L122.209569,28.1038582 L120.257094,28.1038582 L120.257094,27.3281053 L122.960773,27.3281053 Z M55.0823944,27.3281053 L55.0823944,28.1038582 L53.156105,28.1038582 L53.2182962,30.0301475 L52.4433616,30.055515 L52.3541664,27.3281053 L55.0823944,27.3281053 Z M81.1527653,27.3281053 L81.1527653,28.1038582 L76.8075671,28.1038582 L76.8075671,27.3281053 L81.1527653,27.3281053 Z M72.4631872,27.3281053 L72.4631872,28.1038582 L68.1171707,28.1038582 L68.1171707,27.3281053 L72.4631872,27.3281053 Z M63.7727908,27.3281053 L63.7727908,28.1038582 L59.4275926,28.1038582 L59.4275926,27.3281053 L63.7727908,27.3281053 Z M98.5327397,27.3281053 L98.5327397,28.1038582 L94.1875415,28.1038582 L94.1875415,27.3281053 L98.5327397,27.3281053 Z M107.223136,27.3281053 L107.223136,28.1038582 L102.877938,28.1038582 L102.877938,27.3281053 L107.223136,27.3281053 Z M115.912714,27.3281053 L115.912714,28.1038582 L111.567516,28.1038582 L111.567516,27.3281053 L115.912714,27.3281053 Z M89.8423434,27.3281053 L89.8423434,28.1038582 L85.4979635,28.1038582 L85.4979635,27.3281053 L89.8423434,27.3281053 Z" id="Combined-Shape" fill="#FFC000"></path>
                        <path d="M84.4071632,47.6122433 C80.0136851,47.6122433 76.2388453,50.7193464 75.4295419,55.0007168 L75.2920667,55.7273714 L74.5539558,55.7748331 C70.3740552,56.0440554 67.2072158,59.547218 67.3438727,63.7492129 C67.4895309,68.190971 71.2201823,71.8046048 75.6619404,71.8046048 L104.229777,71.8046048 C105.668357,71.8046048 107.000557,71.2457026 107.981705,70.2326414 C108.964489,69.2171252 109.480021,67.8652857 109.433377,66.4250694 C109.35973,64.1837327 107.88269,62.1396074 105.757552,61.3393054 L105.167555,61.1167265 L105.141369,60.4858135 C104.968707,56.2707258 101.398443,52.8420289 97.1841735,52.8420289 C96.1956614,52.8420289 95.2366082,53.0286024 94.3348364,53.3976578 L93.5304428,53.7274346 L93.1286552,52.9565916 C91.4093969,49.6604601 88.0674404,47.6122433 84.4071632,47.6122433 Z M104.229777,73.7120731 L75.6619404,73.7120731 C70.2022112,73.7120731 65.6164314,69.270315 65.4372226,63.811404 C65.2751983,58.8172902 68.8585548,54.6152953 73.7111019,53.9442854 C74.9541068,49.1293803 79.3410386,45.7047749 84.4071632,45.7047749 C88.5044151,45.7047749 92.2653437,47.8470967 94.4084838,51.3478044 C95.3020726,51.0728541 96.2324851,50.9345606 97.1841735,50.9345606 C102.203655,50.9345606 106.484207,54.8575135 107.003012,59.7976192 C109.530756,61.0005272 111.248377,63.5659126 111.340027,66.3628782 C111.403855,68.3243547 110.698476,70.1696319 109.353183,71.5591133 C108.008709,72.9469582 106.189617,73.7120731 104.229777,73.7120731 L104.229777,73.7120731 Z" id="Fill-111" fill="#37A466"></path>
                        <polyline id="Fill-112" fill="#37A466" points="95.9976316 64.4357705 88.1181753 56.8050788 80.7362481 64.4357705 85.0560789 64.4357705 85.3138449 72.3250466 91.9355669 72.3250466 91.6778009 64.4357705 95.9976316 64.4357705"></polyline>
                    </g>
                    <rect id="Rectangle" fill="#668BFB" opacity="0.0767764747" x="159" y="197" width="63" height="2" rx="1"></rect>
                    <g id="Group-10" transform="translate(138.000000, 8.000000)">
                        <polyline id="Fill-73" fill="#EAEAE5" points="41.5166045 101.534356 34.0085408 101.534356 35.8351548 86.9214435 43.3432185 86.9214435 41.5166045 101.534356"></polyline>
                        <polyline id="Fill-74" fill="#F1F0EC" points="43.1768314 101.534356 35.6687678 101.534356 37.4953818 86.9214435 45.0034455 86.9214435 43.1768314 101.534356"></polyline>
                        <polyline id="Fill-75" fill="#EAEAE5" points="44.0901385 94.2278995 36.5820748 94.2278995 37.4953818 86.9214435 45.0034455 86.9214435 44.0901385 94.2278995"></polyline>
                        <polyline id="Fill-79" fill="#E4E4DE" points="63.9764268 90.9013731 50.4960398 59.8410407 38.6758797 59.8410407 52.156874 90.9013731 63.9764268 90.9013731"></polyline>
                        <polyline id="Fill-80" fill="#E4E4DE" points="49.8808935 90.9013731 36.3998992 59.8410407 32.1400264 59.8410407 45.6210207 90.9013731 49.8808935 90.9013731"></polyline>
                        <path d="M38.9989377,100.165002 L48.7920907,100.165002 C49.4643186,100.165002 50.0096309,100.710315 50.0096309,101.38315 L50.0096309,101.534356 L37.7807902,101.534356 L37.7807902,101.38315 C37.7807902,100.710315 38.3261025,100.165002 38.9989377,100.165002" id="Fill-81" fill="#F1F0EC"></path>
                        <path d="M32.1181653,100.165002 L37.9781471,100.165002 C38.6509823,100.165002 39.1962946,100.710315 39.1962946,101.38315 L39.1962946,101.534356 L30.9006251,101.534356 L30.9006251,101.38315 C30.9006251,100.710315 31.4459374,100.165002 32.1181653,100.165002" id="Fill-82" fill="#EAEAE5"></path>
                        <path d="M67.7808606,34.4724813 C68.2429794,35.2084708 68.678379,35.9553907 69.1016337,36.7108122 C69.9523937,38.2186189 70.7430358,39.7616462 71.4680947,41.3520392 C72.1895101,42.9418249 72.8720613,44.563795 73.4355912,46.2592426 C74.0252329,47.9358653 74.5055692,49.6968961 74.8644551,51.5131869 L75.1000689,52.8983287 L75.1286097,53.0707882 L75.1607941,53.2924352 C75.1844769,53.5043662 75.2118033,53.687149 75.220912,53.9239773 C75.2294136,54.1577693 75.2397369,54.3703075 75.2215193,54.6393201 L75.194193,55.0231034 L75.1298242,55.4457508 C75.0891384,55.7141562 74.9925853,56.041465 74.8996757,56.3311242 C74.7782253,56.6475025 74.6549532,56.949914 74.4721703,57.2553617 C74.1308947,57.8626137 73.6335553,58.4042825 73.1313579,58.7880658 C72.0911353,59.5811369 71.1523237,59.8082491 70.3932587,59.9521678 C69.6244776,60.0815125 68.9984008,60.0784763 68.4124027,60.0523644 C67.8312625,60.0201801 67.3017388,59.9564186 66.8001486,59.8616873 C65.8018263,59.6740464 64.8945918,59.4256804 64.0243997,59.1493807 C62.290088,58.5809928 60.6905863,57.9020851 59.1420937,57.1466636 C57.5875286,56.3863841 56.1191932,55.5842042 54.6405346,54.6344621 L56.3863841,50.7589799 C59.456043,51.5131869 62.6199074,52.4419997 65.545566,52.7398359 C66.0532287,52.7915167 66.6463174,52.9757164 67.3248323,53.2924352 C66.5117219,50.5561577 65.1781785,47.7791943 63.7778554,45.0538474 C63.0928752,43.6844941 62.3404899,42.3315367 61.5747452,40.9882953 C61.1933909,40.31546 60.7938191,39.6511264 60.3997126,38.9892217 C60.0098568,38.3443201 59.5829586,37.6386932 59.2283235,37.0830577 L66.30706,32.232936 C66.8687681,33.0369376 67.3169201,33.7176671 67.7808606,34.4724813 Z" id="Fill-113" fill="#FFC59D"></path>
                        <path d="M57.1011197,51.0626059 L54.4686823,48.4374555 L51.84839,54.2755762 C51.84839,54.2755762 54.3259781,55.6503947 56.5357681,54.6484289 L57.1011197,51.0626059" id="Fill-114" fill="#EFA573"></path>
                        <polyline id="Fill-115" fill="#EFA573" points="50.5743753 46.3466869 48.6342051 51.2733223 51.84839 54.2755762 54.4686823 48.4374555 50.5743753 46.3466869"></polyline>
                        <polyline id="Fill-116" fill="#3769A4" points="50.5598012 84.7468741 -5.68434189e-14 75.8403091 8.90656503 25.2811151 59.4663663 34.1876801 50.5598012 84.7468741"></polyline>
                        <path d="M45.5973379,83.8730385 L26.6024955,80.52708 L-2.84217094e-14,75.8403091 L8.90656503,25.2811151 L57.0543613,33.7626037 C56.795672,34.9953253 56.9067991,36.4320835 57.5261961,38.016404 C57.8085683,38.7457136 58.1073363,39.4647 58.4133913,40.166076 L52.6165637,73.07124 C51.71358,73.07124 50.8579619,73.07124 50.0800721,73.07124 L56.5728105,36.2146873 L10.9335722,28.1746709 L2.89416301,73.8139092 L45.6781024,81.3505137 C45.6501688,82.1496573 45.6228425,82.9925231 45.5973379,83.8730385" id="Fill-117" fill="#FFC000"></path>
                        <polyline id="Fill-118" fill="#FFFFFE" points="48.5327941 81.8533183 2.89416301 73.8139092 10.9335722 28.1746709 56.5728105 36.2146873 48.5327941 81.8533183"></polyline>
                        <path d="M27.5085154,53.0325313 C27.0160341,53.0325313 26.5168729,52.9900237 26.0146755,52.9013649 C21.3619107,52.0815747 18.253995,47.6455989 19.0743925,42.9928341 C19.8049166,38.8416594 23.4150297,35.9207773 27.4884761,35.9207773 C27.9815647,35.9207773 28.4807259,35.963285 28.9829233,36.0519438 C33.6356881,36.871734 36.7436038,41.3077098 35.9238136,45.9610819 C35.1926822,50.1116492 31.5825691,53.0325313 27.5085154,53.0325313" id="Fill-119" fill="#FFC000"></path>
                        <path d="M45.6781024,81.3492992 L2.89659202,73.8126947 L4.32849223,65.6852339 L15.8705309,57.6008881 L22.9055453,67.6436216 L38.2022231,56.9347327 L49.5050045,73.07124 C47.440955,73.07124 46.0576349,73.07124 46.0576349,73.07124 C46.0576349,73.07124 45.852991,76.3564733 45.6781024,81.3492992" id="Fill-120" fill="#39C7EE"></path>
                        <path d="M52.4155633,15.3810858 C52.159303,19.1071841 52.4526057,26.6346798 55.3018321,28.7418442 C55.3018321,28.7418442 54.6034923,31.7805332 47.8465993,32.6294715 C40.4162639,33.5628178 43.8320564,29.3873531 43.8320564,29.3873531 C47.7658348,27.9093018 47.2830694,24.9137277 46.221593,22.1768429 L52.4155633,15.3810858" id="Fill-124" fill="#F6B385"></path>
                        <path d="M72.7257136,175.622743 C72.162791,175.577806 71.2300519,175.571733 70.8893836,175.861393 C70.8104408,175.928798 70.7697549,176.00774 70.7673259,176.103686 C70.7606461,176.32594 70.8541629,176.37027 70.8851328,176.384844 C71.2063691,176.539693 72.1172471,176.07636 72.7257136,175.622743 Z M70.8304801,176.619243 L70.7831145,176.599204 C70.6622713,176.541515 70.5207816,176.407919 70.5298904,176.096399 C70.5353556,175.932441 70.6039751,175.792166 70.7357488,175.680432 C71.3077802,175.194023 72.9722579,175.407775 73.0426991,175.416884 L73.141074,175.500685 L73.1046388,175.624564 C72.7159976,175.958553 71.4286233,176.825709 70.8304801,176.619243 L70.8304801,176.619243 Z" id="Fill-125" fill="#585858"></path>
                        <path d="M71.6284092,174.284359 L71.545823,174.261284 C71.4189073,174.23335 71.3089947,174.253389 71.2100126,174.320187 C71.0812752,174.407631 71.1013145,174.476251 71.109816,174.506006 C71.2045473,174.828457 72.1512532,175.275394 72.7876533,175.389558 C72.5575048,175.05982 72.0771685,174.439208 71.6284092,174.284359 Z M72.1870811,175.469108 C71.6035119,175.2675 70.9853294,174.925617 70.8820965,174.572804 C70.8535557,174.473822 70.8401961,174.283752 71.0770244,174.123437 C71.2300519,174.019597 71.4049405,173.98802 71.5962249,174.029313 C72.3285708,174.184163 73.0961373,175.41992 73.1283217,175.472144 L73.1301434,175.593595 L73.0238743,175.653105 C72.8155869,175.648247 72.5064956,175.579628 72.1870811,175.469108 L72.1870811,175.469108 Z" id="Fill-126" fill="#585858"></path>
                        <path d="M33.1596025,183.945738 C33.076409,183.945738 32.999288,183.95424 32.9300613,183.973065 C32.8207559,184.002213 32.7448494,184.056866 32.698091,184.138845 C32.613683,184.286407 32.6446528,184.359277 32.6750154,184.401785 C32.9082002,184.724843 34.1749279,184.73213 35.1058452,184.600963 C34.6412974,184.362313 33.7456007,183.945738 33.1596025,183.945738 Z M33.9538881,184.917342 C33.3108083,184.917342 32.6901967,184.828683 32.4825165,184.540238 C32.4096463,184.438827 32.3519574,184.266368 32.4916253,184.021038 C32.5705681,183.883799 32.6974837,183.790282 32.8681216,183.744131 C33.7024858,183.517019 35.4525861,184.514734 35.5266708,184.557241 L35.584967,184.679299 L35.4908429,184.776459 C35.1714284,184.840221 34.5526386,184.917342 33.9538881,184.917342 L33.9538881,184.917342 Z" id="Fill-127" fill="#656565"></path>
                        <path d="M34.2453691,182.74763 L34.1743206,182.751881 C33.9605679,182.773135 33.9472084,182.857543 33.9423503,182.884869 C33.8876977,183.22493 34.7014153,184.07569 35.3189906,184.446721 C35.2546219,184.053222 35.0760898,183.245577 34.6576932,182.90248 C34.5313848,182.798639 34.3959676,182.74763 34.2453691,182.74763 Z M35.4677674,184.778888 L35.4191872,184.768565 C34.8143642,184.497123 33.6168633,183.413786 33.7085583,182.84722 C33.7298121,182.714231 33.8239362,182.548452 34.1500305,182.51566 C34.3917168,182.493192 34.613971,182.559382 34.8082917,182.719089 C35.4459063,183.241933 35.5807162,184.591855 35.5855742,184.648936 L35.5369941,184.757027 L35.4677674,184.778888 L35.4677674,184.778888 Z" id="Fill-128" fill="#656565"></path>
                        <polyline id="Fill-129" fill="#FFC59D" points="40.9767575 184.659867 35.9669285 184.659867 35.4677674 173.058317 40.4782036 173.058317 40.9767575 184.659867"></polyline>
                        <polyline id="Fill-130" fill="#FFC59D" points="78.4369186 174.080323 73.7920481 175.357374 67.8440148 164.479061 72.4888853 163.20201 78.4369186 174.080323"></polyline>
                        <path d="M73.0961373,174.847889 L78.1065735,172.284678 C78.2887491,172.191162 78.5116106,172.237313 78.6421698,172.395198 L81.5515141,175.908758 C81.8527111,176.27311 81.7288317,176.827531 81.3043625,177.035818 C79.539081,177.900545 78.6373118,178.232712 76.4335943,179.360379 C75.0776006,180.05386 71.0460546,183.052471 69.0105459,183.582602 C67.0205811,184.101195 66.1862168,182.169526 66.9713937,181.770562 C70.4940625,179.979776 71.9180684,177.04432 72.5119609,175.492791 C72.6188372,175.212848 72.8289464,174.984521 73.0961373,174.847889" id="Fill-131" fill="#354142"></path>
                        <path d="M35.9997201,184.079941 L41.4710606,184.079941 C41.6757045,184.079941 41.8530221,184.222645 41.8979587,184.422431 L42.8871722,188.87541 C42.9897978,189.336922 42.6394134,189.77475 42.1663641,189.766856 C40.1927951,189.73285 37.3411398,189.617472 34.8605154,189.617472 C31.9596726,189.617472 29.4547581,189.775358 26.0535397,189.775358 C23.9967771,189.775358 23.4259603,187.696127 24.2870436,187.507879 C28.206248,186.650439 31.406466,186.558744 34.7931104,184.470404 C35.1611051,184.243292 35.5673567,184.079941 35.9997201,184.079941" id="Fill-132" fill="#354142"></path>
                        <path d="M57.5261961,38.016404 C58.0484328,39.3626817 58.6235005,40.6749532 59.2034261,41.9052458 C60.2017484,44.033664 61.1970344,45.8930696 61.9202716,47.1780149 C62.5651732,48.3348299 62.9866061,49.0198102 62.9866061,49.0198102 L73.9298943,43.5921918 C73.9298943,43.5921918 69.5212448,30.9176281 64.9182747,29.5069818 C60.2011412,28.073867 55.1633786,31.9736394 57.5261961,38.016404" id="Fill-133" fill="#FF2A3D"></path>
                        <path d="M62.9859988,49.0210247 C62.9859988,49.0210247 62.6629408,48.4939299 62.1498128,47.5860882 C62.663548,48.4939299 62.9866061,49.0198102 62.9866061,49.0198102 L63.7997165,48.6165948 L62.9859988,49.0210247 M60.5909969,44.7150008 C60.4816916,44.5061061 60.3711717,44.2917461 60.2582229,44.0713136 C60.2588301,44.0707064 60.2588301,44.0694919 60.2594374,44.0682774 C60.3711717,44.2893171 60.4816916,44.5048916 60.5909969,44.7150008" id="Fill-134" fill="#BEBFBB"></path>
                        <path d="M62.9866061,49.0198102 C62.9866061,49.0198102 62.663548,48.4939299 62.1498128,47.5860882 C62.0769426,47.4573508 61.9998216,47.3207191 61.9202716,47.1774076 C61.5407391,46.4991071 61.0859073,45.6653501 60.5909969,44.7150008 C60.4816916,44.5048916 60.3711717,44.2893171 60.2594374,44.0682774 C60.7428099,41.8542366 61.4229322,39.9699337 62.3757106,39.2691649 C63.6867676,42.1645424 64.1561734,45.4667787 64.2405814,48.3973769 L63.7997165,48.6165948 L62.9866061,49.0198102" id="Fill-135" fill="#FF3D4E"></path>
                        <path d="M34.386238,46.0995353 C34.386238,47.8040917 34.4275447,49.6798931 34.5228832,51.7457644 C34.7682131,57.3652743 35.3821448,64.3693189 36.5553557,73.07124 L63.3497428,73.07124 C63.5337401,68.9589295 60.9492756,48.8886437 64.9182747,29.5069818 C64.9182747,29.5069818 60.3213771,28.5863877 55.9430902,28.375064 C52.5200107,28.2117132 47.5624054,28.1024079 44.5546862,28.375064 C40.5856872,28.743666 36.8486584,29.7662784 36.8486584,29.7662784 C36.8486584,29.7662784 34.3795718,32.5553868 34.386238,46.0995353" id="Fill-136" fill="#FF4F62"></path>
                        <path d="M41.2785617,38.1451414 C40.8030834,39.1422492 40.3950101,39.847876 39.9462508,40.5777929 C39.5047786,41.2943503 39.0596629,41.9817595 38.5945079,42.6497367 C37.6739139,43.9905491 36.7053469,45.2748871 35.6924506,46.5294697 C33.6617999,49.0331697 31.4702275,51.4190628 28.9313069,53.622173 C27.666401,54.7291934 26.2921897,55.7712379 24.7400536,56.7228017 L24.1425176,57.0713644 L23.9864539,57.1606304 L23.7672359,57.270543 L23.3251564,57.4830812 C22.7318712,57.7393416 22.131299,57.940342 21.5398356,58.0581489 C20.3563014,58.3022642 19.2432085,58.3180527 18.2205962,58.2275722 C16.1717279,58.0107832 14.4574555,57.3834919 12.8864946,56.6311067 C12.1055685,56.2412509 11.3610776,55.8264978 10.6542363,55.3576992 C9.92978465,54.8901152 9.29884982,54.4116006 8.58593598,53.8073849 L10.7374298,50.1414046 C13.3631874,50.8294211 16.3302207,51.4488181 18.3675511,51.1579444 C18.8654978,51.0972192 19.2826799,50.9733398 19.5705173,50.8221341 C19.7150433,50.7437986 19.8273849,50.6727501 19.91908,50.5974508 L19.9798052,50.5385474 L20.0113823,50.5130428 L20.0982193,50.4517104 L20.466214,50.1924138 C21.4548203,49.4649259 22.444641,48.5740872 23.4186732,47.6200943 C25.3588434,45.6944982 27.2012459,43.493817 28.9392011,41.2196583 C29.8075715,40.0804535 30.6492228,38.9145297 31.4532244,37.7467841 C31.8503672,37.1607859 32.2438665,36.5772168 32.6082177,36.0033636 C32.9628529,35.440441 33.3344911,34.8362253 33.5263827,34.4651943 L41.2785617,38.1451414" id="Fill-137" fill="#FFC59D"></path>
                        <path d="M2.32083076,46.8436028 C3.13405253,46.6964225 5.0021066,47.2904856 7.92499297,48.625792 L7.92499297,48.625792 L11.8207674,50.6794299 L12.2755991,53.9051525 C10.3742931,55.3079046 8.07683879,54.8230742 8.07683879,54.8230742 L8.07683879,54.8230742 L8.07618162,54.8176848 L6.31413203,54.6202576 C4.02298222,54.3631424 2.16119189,52.6749411 1.66921707,50.440369 L1.62324806,50.2072936 L1.62324806,50.2072936 L1.5992425,50.0687769 C1.3892097,48.8454734 1.14617709,47.0561965 2.32083076,46.8436028 Z" id="Combined-Shape" fill="#FFC59D"></path>
                        <path d="M44.5899068,34.8623371 C44.4314141,39.6499119 34.5720707,50.6800371 34.5720707,50.6800371 L24.1528409,43.8757785 C24.1528409,43.8757785 27.4562918,37.6963822 31.7453126,33.2239712 C38.2161899,26.4780088 44.7793695,29.117126 44.5899068,34.8623371" id="Fill-140" fill="#FF2A3D"></path>
                        <polyline id="Fill-141" fill="#BEBFBB" points="40.7375002 179.041571 40.7350712 179.041571 40.4782036 173.061354 40.4806326 173.061354 40.7375002 179.041571"></polyline>
                        <polyline id="Fill-142" fill="#D8A27C" points="40.7350712 179.041571 35.7252422 179.041571 35.4689819 173.061354 40.4782036 173.061354 40.7350712 179.041571"></polyline>
                        <polyline id="Fill-143" fill="#BEBFBB" points="75.5567224 168.812411 74.9039265 167.618554 74.9069628 167.617947 75.5597587 168.811804 75.5567224 168.812411"></polyline>
                        <polyline id="Fill-144" fill="#D8A27C" points="70.9130664 170.088855 70.3161377 168.998231 74.9039265 167.618554 75.5567224 168.812411 70.9130664 170.088855"></polyline>
                        <path d="M54.1680926,12.7024973 C53.9670922,17.6704258 54.1012949,20.5882717 51.648604,23.1873102 C47.9589409,27.0967986 41.7868316,24.9525918 40.5000646,20.0247418 C39.3414278,15.588766 39.8648791,8.20943974 44.6803874,6.13324516 C49.4248472,4.08802044 54.369093,7.73456868 54.1680926,12.7024973" id="Fill-145" fill="#FFC59D"></path>
                        <path d="M44.2771721,15.0701728 C42.4888149,13.7979799 40.7344639,11.1661497 40.8698811,9.20958378 C39.2163339,9.14217881 38.103241,6.40954482 39.014119,4.41897278 C39.5873649,5.70088174 41.5603266,4.75660489 42.3285004,3.74431581 C41.9155691,2.76603284 41.982974,1.14649177 44.8170191,-2.48689958e-14 C44.5807981,0.826469967 44.7046775,2.21343353 47.5496531,1.21450399 C51.0073459,-2.48689958e-14 57.0822949,0.809466911 55.3018321,4.92542094 C57.7375198,5.36385688 60.8921939,10.3870454 58.2099619,13.0316278 C55.5277298,15.6768175 54.971487,19.9379048 52.6772889,20.3763407 C50.3830909,20.8147767 44.411982,20.9647679 44.2771721,15.0701728" id="Fill-146" fill="#2C3335"></path>
                        <path d="M53.687149,4.76085565 C55.2811855,4.03093875 57.8510759,4.34428078 59.2350032,6.32027878 C57.350093,5.549676 56.2716135,5.04747859 53.687149,4.76085565" id="Fill-147" fill="#132529"></path>
                        <path d="M45.5870146,14.8588491 C45.549365,16.0229512 45.0398806,17.1317933 44.4101603,17.8653537 C43.4634544,18.9687306 42.4256607,18.3268653 42.2161588,17.0206662 C42.0279107,15.8456336 42.2932798,13.8550615 43.4713487,13.2283775 C44.6318072,12.6114095 45.6295223,13.5271455 45.5870146,14.8588491" id="Fill-148" fill="#F6B385"></path>
                        <path d="M46.0576349,73.07124 C46.0576349,73.07124 43.6942101,110.981375 48.1745154,124.959709 C55.2720767,147.101331 67.9229576,169.717824 67.9229576,169.717824 L76.9716196,166.996728 C76.9716196,166.996728 67.0211883,143.122616 63.7481001,124.471478 C60.8083932,107.716181 63.3485283,86.7568782 63.3485283,73.07124 C57.106585,73.07124 46.0576349,73.07124 46.0576349,73.07124" id="Fill-149" fill="#1EE1DA"></path>
                        <path d="M46.0175563,111.758657 C45.2074821,101.604797 45.395123,89.4609714 45.6744589,81.5181152 C46.4742098,81.2843232 47.2180935,81.1525495 47.8775692,81.1525495 C49.3033968,81.1525495 50.3357252,81.7695176 50.6861096,83.3076869 C52.0214568,89.1822427 48.0148081,104.671419 46.0175563,111.758657" id="Fill-150" fill="#34D5CE"></path>
                        <polyline id="Fill-151" fill="#00B5AE" points="65.3688557 167.124251 67.7298514 169.925504 77.6159139 166.952399 76.3601168 163.607047 65.3688557 167.124251"></polyline>
                        <path d="M36.5517122,73.07124 C36.5517122,73.07124 29.0059989,105.05581 28.4746534,120.33427 C27.8783319,137.468492 33.8585496,177.883542 33.8585496,177.883542 L42.3455035,177.883542 C42.3455035,177.883542 43.3905842,137.153936 43.7676876,121.546952 C44.1794045,104.532966 54.1662708,73.07124 54.1662708,73.07124 L36.5517122,73.07124" id="Fill-152" fill="#1EE1DA"></path>
                        <polyline id="Fill-153" fill="#00B5AE" points="32.2250417 174.50297 32.7041635 178.026853 43.0280547 178.026853 43.3073906 174.881895 32.2250417 174.50297"></polyline>
                        <path d="M40.3045295,27.2012459 C41.4522358,26.8034959 50.2063806,25.6910102 56.5594509,26.0298568 C60.1859599,26.2235702 62.2317918,26.6188913 63.7128795,27.3360559 C65.1945743,28.0532205 62.5396686,31.6633336 61.3142341,32.1041985 C61.8109662,33.4887331 59.0473624,35.2552292 57.4715434,36.0932369 C56.8406086,37.3957924 50.6326715,38.5975441 46.985516,35.8011487 C44.185477,33.6545129 37.0265832,28.3374144 40.3045295,27.2012459" id="Fill-154" fill="#EA1D2F"></path>
                    </g>
                </g>
            </g>
        </g>
    </g>
</svg>